<svg id="visual" viewBox="0 0 900 600" width="900" height="600" xmlns="http://www.w3.org/2000/svg" xmlns:xlink="http://www.w3.org/1999/xlink" version="1.1"><g transform="translate(416.0734764216651 340.51416452959677)"><path d="M120.1 -212.9C159.2 -185.5 197 -160.5 222.4 -125.4C247.8 -90.3 260.9 -45.2 256.1 -2.8C251.4 39.7 228.7 79.3 196.1 101.8C163.4 124.4 120.7 129.7 86.4 146.2C52 162.7 26 190.4 -2.2 194.1C-30.3 197.9 -60.7 177.7 -90.4 158.6C-120.1 139.4 -149.3 121.2 -167.8 94.9C-186.3 68.7 -194.1 34.3 -186.1 4.7C-178 -25 -153.9 -50 -143.3 -89.8C-132.6 -129.7 -135.3 -184.4 -113.7 -221.8C-92 -259.3 -46 -279.7 -2.8 -274.9C40.5 -270.1 81 -240.3 120.1 -212.9" fill="#19E5B0"></path></g></svg>