<svg id="visual" viewBox="0 0 900 600" width="900" height="600" xmlns="http://www.w3.org/2000/svg" xmlns:xlink="http://www.w3.org/1999/xlink" version="1.1"><path d="M0 365L129 345L257 382L386 337L514 380L643 346L771 391L900 335L900 601L771 601L643 601L514 601L386 601L257 601L129 601L0 601Z" fill="#19e5b0"></path><path d="M0 438L129 403L257 422L386 393L514 391L643 472L771 392L900 374L900 601L771 601L643 601L514 601L386 601L257 601L129 601L0 601Z" fill="#00bbb9"></path><path d="M0 464L129 488L257 421L386 432L514 470L643 449L771 440L900 443L900 601L771 601L643 601L514 601L386 601L257 601L129 601L0 601Z" fill="#0090a7"></path><path d="M0 534L129 508L257 503L386 477L514 513L643 481L771 474L900 467L900 601L771 601L643 601L514 601L386 601L257 601L129 601L0 601Z" fill="#356680"></path><path d="M0 550L129 562L257 556L386 567L514 561L643 515L771 534L900 570L900 601L771 601L643 601L514 601L386 601L257 601L129 601L0 601Z" fill="#374151"></path></svg>