<svg id="visual" viewBox="0 0 900 600" width="900" height="600" xmlns="http://www.w3.org/2000/svg" xmlns:xlink="http://www.w3.org/1999/xlink" version="1.1"><g stroke-width="1" stroke-linejoin="bevel"><path d="M474 280L591 299L518 236Z" fill="#0090a7" stroke="#FFFFFF"></path><path d="M474 280L481 398L591 299Z" fill="#0090a7" stroke="#FFFFFF"></path><path d="M591 299L574 185L518 236Z" fill="#374151" stroke="#FFFFFF"></path><path d="M474 280L438 378L481 398Z" fill="#00a1b2" stroke="#FFFFFF"></path><path d="M481 398L607 428L591 299Z" fill="#394f64" stroke="#FFFFFF"></path><path d="M366 176L377 284L474 280Z" fill="#227f99" stroke="#FFFFFF"></path><path d="M474 280L377 284L438 378Z" fill="#227f99" stroke="#FFFFFF"></path><path d="M366 176L474 280L518 236Z" fill="#00b3b8" stroke="#FFFFFF"></path><path d="M692 404L697 275L591 299Z" fill="#00c4ba" stroke="#FFFFFF"></path><path d="M591 299L697 275L574 185Z" fill="#375e77" stroke="#FFFFFF"></path><path d="M733 226L596 114L574 185Z" fill="#0090a7" stroke="#FFFFFF"></path><path d="M406 104L366 176L518 236Z" fill="#374151" stroke="#FFFFFF"></path><path d="M607 428L692 404L591 299Z" fill="#00a1b2" stroke="#FFFFFF"></path><path d="M406 104L518 236L472 74Z" fill="#227f99" stroke="#FFFFFF"></path><path d="M431 538L511 501L481 398Z" fill="#374151" stroke="#FFFFFF"></path><path d="M481 398L511 501L607 428Z" fill="#00a1b2" stroke="#FFFFFF"></path><path d="M607 428L706 481L692 404Z" fill="#00c4ba" stroke="#FFFFFF"></path><path d="M431 538L481 398L438 378Z" fill="#00b3b8" stroke="#FFFFFF"></path><path d="M793 281L733 226L697 275Z" fill="#375e77" stroke="#FFFFFF"></path><path d="M697 275L733 226L574 185Z" fill="#00a1b2" stroke="#FFFFFF"></path><path d="M472 74L518 236L574 185Z" fill="#394f64" stroke="#FFFFFF"></path><path d="M596 114L472 74L574 185Z" fill="#0090a7" stroke="#FFFFFF"></path><path d="M511 501L594 524L607 428Z" fill="#375e77" stroke="#FFFFFF"></path><path d="M260 223L292 296L377 284Z" fill="#00d5b7" stroke="#FFFFFF"></path><path d="M377 284L292 296L438 378Z" fill="#0090a7" stroke="#FFFFFF"></path><path d="M260 223L377 284L366 176Z" fill="#00a1b2" stroke="#FFFFFF"></path><path d="M594 524L706 481L607 428Z" fill="#375e77" stroke="#FFFFFF"></path><path d="M772 413L793 281L697 275Z" fill="#227f99" stroke="#FFFFFF"></path><path d="M772 413L697 275L692 404Z" fill="#00a1b2" stroke="#FFFFFF"></path><path d="M321 485L431 538L438 378Z" fill="#394f64" stroke="#FFFFFF"></path><path d="M511 501L497 600L594 524Z" fill="#00d5b7" stroke="#FFFFFF"></path><path d="M706 481L772 413L692 404Z" fill="#374151" stroke="#FFFFFF"></path><path d="M837 205L713 95L733 226Z" fill="#306e89" stroke="#FFFFFF"></path><path d="M733 226L713 95L596 114Z" fill="#374151" stroke="#FFFFFF"></path><path d="M596 114L515 0L472 74Z" fill="#00b3b8" stroke="#FFFFFF"></path><path d="M302 120L260 223L366 176Z" fill="#00b3b8" stroke="#FFFFFF"></path><path d="M261 413L321 485L438 378Z" fill="#375e77" stroke="#FFFFFF"></path><path d="M261 413L438 378L292 296Z" fill="#306e89" stroke="#FFFFFF"></path><path d="M406 104L302 120L366 176Z" fill="#00d5b7" stroke="#FFFFFF"></path><path d="M384 0L302 120L406 104Z" fill="#374151" stroke="#FFFFFF"></path><path d="M577 0L515 0L596 114Z" fill="#19e5b0" stroke="#FFFFFF"></path><path d="M472 74L384 0L406 104Z" fill="#227f99" stroke="#FFFFFF"></path><path d="M206 375L261 413L292 296Z" fill="#394f64" stroke="#FFFFFF"></path><path d="M713 95L577 0L596 114Z" fill="#00a1b2" stroke="#FFFFFF"></path><path d="M431 538L497 600L511 501Z" fill="#00d5b7" stroke="#FFFFFF"></path><path d="M594 524L679 600L706 481Z" fill="#227f99" stroke="#FFFFFF"></path><path d="M391 600L497 600L431 538Z" fill="#375e77" stroke="#FFFFFF"></path><path d="M497 600L603 600L594 524Z" fill="#374151" stroke="#FFFFFF"></path><path d="M706 481L761 517L772 413Z" fill="#394f64" stroke="#FFFFFF"></path><path d="M793 281L837 205L733 226Z" fill="#374151" stroke="#FFFFFF"></path><path d="M900 316L837 205L793 281Z" fill="#00b3b8" stroke="#FFFFFF"></path><path d="M679 600L761 517L706 481Z" fill="#374151" stroke="#FFFFFF"></path><path d="M900 383L900 316L793 281Z" fill="#00d5b7" stroke="#FFFFFF"></path><path d="M260 223L212 304L292 296Z" fill="#0090a7" stroke="#FFFFFF"></path><path d="M214 206L212 304L260 223Z" fill="#227f99" stroke="#FFFFFF"></path><path d="M515 0L384 0L472 74Z" fill="#00b3b8" stroke="#FFFFFF"></path><path d="M214 62L214 206L302 120Z" fill="#375e77" stroke="#FFFFFF"></path><path d="M302 120L214 206L260 223Z" fill="#0090a7" stroke="#FFFFFF"></path><path d="M118 411L206 375L77 319Z" fill="#00a1b2" stroke="#FFFFFF"></path><path d="M212 304L206 375L292 296Z" fill="#306e89" stroke="#FFFFFF"></path><path d="M261 413L224 474L321 485Z" fill="#00b3b8" stroke="#FFFFFF"></path><path d="M301 600L391 600L321 485Z" fill="#0090a7" stroke="#FFFFFF"></path><path d="M321 485L391 600L431 538Z" fill="#00c4ba" stroke="#FFFFFF"></path><path d="M603 600L679 600L594 524Z" fill="#374151" stroke="#FFFFFF"></path><path d="M785 0L730 0L713 95Z" fill="#375e77" stroke="#FFFFFF"></path><path d="M713 95L730 0L577 0Z" fill="#394f64" stroke="#FFFFFF"></path><path d="M206 375L224 474L261 413Z" fill="#00a1b2" stroke="#FFFFFF"></path><path d="M837 205L823 75L713 95Z" fill="#00d5b7" stroke="#FFFFFF"></path><path d="M900 383L793 281L772 413Z" fill="#375e77" stroke="#FFFFFF"></path><path d="M837 205L900 176L823 75Z" fill="#375e77" stroke="#FFFFFF"></path><path d="M900 533L900 383L772 413Z" fill="#374151" stroke="#FFFFFF"></path><path d="M900 533L772 413L761 517Z" fill="#375e77" stroke="#FFFFFF"></path><path d="M224 474L301 600L321 485Z" fill="#227f99" stroke="#FFFFFF"></path><path d="M900 316L900 176L837 205Z" fill="#00a1b2" stroke="#FFFFFF"></path><path d="M900 0L785 0L823 75Z" fill="#19e5b0" stroke="#FFFFFF"></path><path d="M823 75L785 0L713 95Z" fill="#374151" stroke="#FFFFFF"></path><path d="M679 600L770 600L761 517Z" fill="#375e77" stroke="#FFFFFF"></path><path d="M269 0L214 62L302 120Z" fill="#394f64" stroke="#FFFFFF"></path><path d="M77 319L206 375L212 304Z" fill="#00d5b7" stroke="#FFFFFF"></path><path d="M384 0L269 0L302 120Z" fill="#19e5b0" stroke="#FFFFFF"></path><path d="M900 176L900 100L823 75Z" fill="#00a1b2" stroke="#FFFFFF"></path><path d="M206 375L118 411L224 474Z" fill="#374151" stroke="#FFFFFF"></path><path d="M224 474L182 600L301 600Z" fill="#00a1b2" stroke="#FFFFFF"></path><path d="M77 319L212 304L78 222Z" fill="#00b3b8" stroke="#FFFFFF"></path><path d="M770 600L900 533L761 517Z" fill="#00c4ba" stroke="#FFFFFF"></path><path d="M78 222L212 304L214 206Z" fill="#19e5b0" stroke="#FFFFFF"></path><path d="M100 62L78 222L214 206Z" fill="#19e5b0" stroke="#FFFFFF"></path><path d="M85 469L182 600L224 474Z" fill="#394f64" stroke="#FFFFFF"></path><path d="M85 469L224 474L118 411Z" fill="#306e89" stroke="#FFFFFF"></path><path d="M269 0L171 0L214 62Z" fill="#394f64" stroke="#FFFFFF"></path><path d="M214 62L100 62L214 206Z" fill="#227f99" stroke="#FFFFFF"></path><path d="M900 100L900 0L823 75Z" fill="#0090a7" stroke="#FFFFFF"></path><path d="M770 600L900 600L900 533Z" fill="#374151" stroke="#FFFFFF"></path><path d="M0 363L85 469L118 411Z" fill="#374151" stroke="#FFFFFF"></path><path d="M171 0L100 62L214 62Z" fill="#00c4ba" stroke="#FFFFFF"></path><path d="M171 0L102 0L100 62Z" fill="#00d5b7" stroke="#FFFFFF"></path><path d="M0 203L0 275L78 222Z" fill="#00a1b2" stroke="#FFFFFF"></path><path d="M0 203L78 222L0 83Z" fill="#0090a7" stroke="#FFFFFF"></path><path d="M78 222L0 275L77 319Z" fill="#306e89" stroke="#FFFFFF"></path><path d="M77 319L0 363L118 411Z" fill="#00d5b7" stroke="#FFFFFF"></path><path d="M0 275L0 363L77 319Z" fill="#374151" stroke="#FFFFFF"></path><path d="M85 469L82 600L182 600Z" fill="#00c4ba" stroke="#FFFFFF"></path><path d="M0 83L78 222L100 62Z" fill="#227f99" stroke="#FFFFFF"></path><path d="M0 521L82 600L85 469Z" fill="#375e77" stroke="#FFFFFF"></path><path d="M0 0L0 83L100 62Z" fill="#19e5b0" stroke="#FFFFFF"></path><path d="M0 363L0 521L85 469Z" fill="#00b3b8" stroke="#FFFFFF"></path><path d="M102 0L0 0L100 62Z" fill="#394f64" stroke="#FFFFFF"></path><path d="M0 521L0 600L82 600Z" fill="#19e5b0" stroke="#FFFFFF"></path></g></svg>