<svg xmlns="http://www.w3.org/2000/svg" version="1.1" xmlns:xlink="http://www.w3.org/1999/xlink" xmlns:svgjs="http://svgjs.dev/svgjs" viewBox="0 0 800 800"><defs><linearGradient x1="50%" y1="0%" x2="50%" y2="100%" id="nnneon-grad"><stop stop-color="#19E5B0" stop-opacity="1" offset="0%"></stop><stop stop-color="#BD99FF" stop-opacity="1" offset="100%"></stop></linearGradient><filter id="nnneon-filter" x="-100%" y="-100%" width="400%" height="400%" filterUnits="objectBoundingBox" primitiveUnits="userSpaceOnUse" color-interpolation-filters="sRGB">
	<feGaussianBlur stdDeviation="17 8" x="0%" y="0%" width="100%" height="100%" in="SourceGraphic" edgeMode="none" result="blur"></feGaussianBlur></filter><filter id="nnneon-filter2" x="-100%" y="-100%" width="400%" height="400%" filterUnits="objectBoundingBox" primitiveUnits="userSpaceOnUse" color-interpolation-filters="sRGB">
	<feGaussianBlur stdDeviation="10 17" x="0%" y="0%" width="100%" height="100%" in="SourceGraphic" edgeMode="none" result="blur"></feGaussianBlur></filter></defs><g stroke-width="28.5" stroke="url(#nnneon-grad)" fill="none" transform="rotate(225, 400, 400)"><path d="M387.11401251388213 228.32304794012472C392.3931952141402 217.6554184096468 407.6067876253959 217.6554184096468 412.88597032565406 228.32304794012472L576.4903150264354 558.9246761141845C581.218864019123 568.479536742157 574.2662149073451 579.6776723773178 563.6057738064701 579.6776723773178H236.39420903306615C225.73376793219091 579.6776723773178 218.7811188204132 568.479536742157 223.50966781310075 558.9246761141845L387.11401251388213 228.32304794012472Z " filter="url(#nnneon-filter)"></path><path d="M399.11401251388213 228.32304794012472C404.3931952141402 217.6554184096468 419.6067876253959 217.6554184096468 424.88597032565406 228.32304794012472L588.4903150264354 558.9246761141845C593.218864019123 568.479536742157 586.2662149073451 579.6776723773178 575.6057738064701 579.6776723773178H248.39420903306615C237.73376793219091 579.6776723773178 230.7811188204132 568.479536742157 235.50966781310075 558.9246761141845L399.11401251388213 228.32304794012472Z " filter="url(#nnneon-filter2)" opacity="0.25"></path><path d="M375.11401251388213 228.32304794012472C380.3931952141402 217.6554184096468 395.6067876253959 217.6554184096468 400.88597032565406 228.32304794012472L564.4903150264354 558.9246761141845C569.218864019123 568.479536742157 562.2662149073451 579.6776723773178 551.6057738064701 579.6776723773178H224.39420903306615C213.73376793219091 579.6776723773178 206.7811188204132 568.479536742157 211.50966781310075 558.9246761141845L375.11401251388213 228.32304794012472Z " filter="url(#nnneon-filter2)" opacity="0.25"></path><path d="M387.11401251388213 228.32304794012472C392.3931952141402 217.6554184096468 407.6067876253959 217.6554184096468 412.88597032565406 228.32304794012472L576.4903150264354 558.9246761141845C581.218864019123 568.479536742157 574.2662149073451 579.6776723773178 563.6057738064701 579.6776723773178H236.39420903306615C225.73376793219091 579.6776723773178 218.7811188204132 568.479536742157 223.50966781310075 558.9246761141845L387.11401251388213 228.32304794012472Z "></path></g></svg>