<svg xmlns="http://www.w3.org/2000/svg" version="1.1" xmlns:xlink="http://www.w3.org/1999/xlink" xmlns:svgjs="http://svgjs.dev/svgjs" viewBox="0 0 800 800"><defs><linearGradient x1="50%" y1="0%" x2="50%" y2="100%" id="nnneon-grad"><stop stop-color="#19E5B0" stop-opacity="1" offset="0%"></stop><stop stop-color="#BD99FF" stop-opacity="1" offset="100%"></stop></linearGradient><filter id="nnneon-filter" x="-100%" y="-100%" width="400%" height="400%" filterUnits="objectBoundingBox" primitiveUnits="userSpaceOnUse" color-interpolation-filters="sRGB">
	<feGaussianBlur stdDeviation="17 8" x="0%" y="0%" width="100%" height="100%" in="SourceGraphic" edgeMode="none" result="blur"></feGaussianBlur></filter><filter id="nnneon-filter2" x="-100%" y="-100%" width="400%" height="400%" filterUnits="objectBoundingBox" primitiveUnits="userSpaceOnUse" color-interpolation-filters="sRGB">
	<feGaussianBlur stdDeviation="10 17" x="0%" y="0%" width="100%" height="100%" in="SourceGraphic" edgeMode="none" result="blur"></feGaussianBlur></filter></defs><g stroke-width="28.5" stroke="url(#nnneon-grad)" fill="none" transform="rotate(225, 400, 400)"><path d="M400 194.46359252929688L578.0000113740851 297.231797150066V502.76820639160405L400 605.5364110123733L221.99998862591485 502.76820639160405V297.231797150066L400 194.46359252929688Z " filter="url(#nnneon-filter)"></path><path d="M412 194.46359252929688L590.0000113740851 297.231797150066V502.76820639160405L412 605.5364110123733L233.99998862591485 502.76820639160405V297.231797150066L412 194.46359252929688Z " filter="url(#nnneon-filter2)" opacity="0.25"></path><path d="M388 194.46359252929688L566.0000113740851 297.231797150066V502.76820639160405L388 605.5364110123733L209.99998862591485 502.76820639160405V297.231797150066L388 194.46359252929688Z " filter="url(#nnneon-filter2)" opacity="0.25"></path><path d="M400 194.46359252929688L578.0000113740851 297.231797150066V502.76820639160405L400 605.5364110123733L221.99998862591485 502.76820639160405V297.231797150066L400 194.46359252929688Z "></path></g></svg>