<svg xmlns="http://www.w3.org/2000/svg" version="1.1" xmlns:xlink="http://www.w3.org/1999/xlink" xmlns:svgjs="http://svgjs.dev/svgjs" viewBox="0 0 800 800"><defs><linearGradient x1="50%" y1="0%" x2="50%" y2="100%" id="ccchaos-grad"><stop stop-color="#19E5B0" stop-opacity="1" offset="0%"></stop><stop stop-color="#BD99FF" stop-opacity="1" offset="100%"></stop></linearGradient></defs><g stroke-width="3.5" stroke="url(#ccchaos-grad)" fill="none" stroke-linecap="round"><path d="M393.21 98.54C403.3 94.65 413.62 92.2 424.17 91.43 434.75 92.01 445.59 94.43 456.69 98.54 467.86 103.68 479.3 109.95 490.99 116.96 502.75 123.97 514.72 130.99 526.85 137.72 538.95 143.56 551.07 148.75 563.08 153.25 574.83 156.69 586.21 159.6 597 162.16 607.18 164.1 616.42 166.14 624.49 168.49 634.35 172.42 644.5 185.01 644.65 194.08 643.45 201.08 641.1 208.98 637.95 217.65 635.07 226.84 632.26 236.64 630.05 246.89 629.46 257.46 630.35 268.32 633.12 279.34 638.35 290.51 645.7 301.74 655.07 312.94 666.4 324.19 678.92 335.37 691.94 346.44 704.95 357.52 716.84 368.47 726.7 379.26 734.2 390.06 738.34 400.69 738.67 411.1 735.63 421.52 729.03 431.45 719.51 440.87 708.18 450.26 695.5 459.09 682.41 467.34 669.99 475.51 658.68 483.05 649.05 489.95 641.77 496.77 636.69 502.95 633.77 508.54 633.79 516.74 641.85 531.8 646.88 539.56 649.94 545.52 651.79 552.02 652.17 559.26 651.48 567.65 649.02 577.03 644.8 587.47 639.33 599.03 632.26 611.48 623.81 624.57 614.41 638.01 603.99 651.33 592.83 663.96 581.16 675.53 569.09 685.35 556.84 692.87 544.44 698.08 532.08 700.42 519.86 699.79 507.71 696.98 495.79 691.87 484.15 685.1 472.62 678.14 461.37 671.26 450.4 665.41 439.52 662 428.88 661.09 418.48 663.07 408.12 668.38 397.96 676.24 388 685.91 378.04 696.79 368.5 707.04 359.36 715.52 350.2 721.93 341.44 724.94 333.06 724.27 324.65 720.39 316.62 713.11 308.97 703.11 301.25 691.42 293.86 678.59 286.8 665.53 279.61 653.21 272.67 642.05 265.96 632.52 259.01 625.13 252.2 619.66 245.47 615.95 238.4 614.17 231.32 613.51 224.21 613.49 216.7 614.27 209.12 614.81 201.47 614.71 193.47 614.3 185.46 612.69 177.5 609.77 169.38 605.99 161.47 600.78 153.88 594.27 146.41 586.9 139.48 578.43 133.19 569.07 127.32 559.13 122.24 548.58 118.06 537.63 114.39 526.39 111.63 514.97 109.76 503.52 108.29 491.98 107.56 480.51 107.5 469.21 107.5 457.91 107.91 446.81 108.63 435.96 109.01 425.13 109.49 414.54 110 404.23 109.94 393.91 109.89 384.09 109.86 374.76 109.4 365.4 109.15 356.49 109.2 348.02 109.18 339.47 109.72 331.3 110.91 323.46 112.39 315.47 114.72 307.72 117.92 300.14 121.62 292.29 126.23 284.49 131.69 276.64 137.62 268.38 144.28 259.95 151.57 251.29 159.09 242.15 167.05 232.72 175.31 223.03 183.51 212.96 191.86 202.74 200.25 192.51 208.36 182.26 216.45 172.31 224.46 162.9 232.11 154.02 239.7 146.05 247.26 139.24 254.47 133.39 261.71 128.9 269.03 125.83 276.09 123.67 283.32 122.72 290.75 122.79 298.01 123.08 305.56 123.77 313.41 124.54 321.17 124.53 329.28 123.99 337.77 122.71 346.2 120.1 355.03 116.69 364.27 112.64 373.48 107.77 383.12 102.92 393.2 98.54" stroke-dasharray="4 2" transform="rotate(0, 400, 400)" opacity="0.05"></path><path d="M400.61 109.42C410.5 105.56 420.62 103.06 430.97 102.16 441.34 102.52 451.96 104.65 462.8 108.42 473.68 113.22 484.78 119.2 496.04 125.97 507.31 132.88 518.69 139.92 530.08 146.8 541.37 152.95 552.52 158.54 563.38 163.52 573.91 167.47 583.91 170.86 593.19 173.82 601.81 176.06 609.43 178.24 615.85 180.55 623.39 184.03 629.91 194.51 629.07 202.06 627.63 207.92 625.39 214.64 622.68 222.14 620.51 230.14 618.66 238.81 617.59 248.01 618.17 257.57 620.24 267.52 624.08 277.73 630.15 288.14 638.1 298.69 647.76 309.3 659.04 320 671.22 330.69 683.66 341.28 695.93 351.92 707.01 362.43 716.12 372.77 723.01 383.13 726.78 393.3 727.02 403.21 724.2 413.13 718.09 422.55 709.24 431.43 698.66 440.3 686.72 448.62 674.24 456.37 662.21 464.08 651.02 471.23 641.2 477.83 633.4 484.43 627.53 490.54 623.62 496.21 621.95 502.04 621.88 507.61 623.02 513.05 625.53 518.91 628.41 524.92 631.21 531.26 634.15 538.37 636.24 546.1 637.2 554.59 637.4 564.09 636.09 574.45 633.24 585.68 629.32 597.69 623.88 610.26 617.08 623.09 609.36 635.89 600.54 648.19 590.85 659.49 580.58 669.5 569.74 677.64 558.55 683.46 547.1 687.1 535.51 688.09 523.93 686.45 512.31 683.02 500.8 677.71 489.48 671.13 478.22 664.66 467.18 658.5 456.39 653.46 445.66 650.8 435.17 650.48 424.93 652.8 414.72 658.16 404.74 665.79 394.98 675.04 385.23 685.39 375.91 695.17 367.01 703.39 358.08 709.78 349.55 713.12 341.41 713.1 333.22 710.13 325.38 703.95 317.88 695.07 310.29 684.42 302.99 672.42 295.96 659.87 288.77 647.67 281.78 636.23 274.94 626.04 267.86 617.63 260.85 610.91 253.88 605.83 246.58 602.63 239.25 600.66 231.87 599.56 224.14 599.48 216.35 599.52 208.52 599.31 200.41 599.13 192.34 598.12 184.39 596.1 176.35 593.5 168.59 589.68 161.21 584.67 154.02 578.94 147.4 572.11 141.47 564.33 135.97 555.98 131.28 546.9 127.47 537.28 124.18 527.31 121.75 517.01 120.19 506.5 119 495.85 118.5 485.14 118.64 474.47 118.79 463.77 119.33 453.16 120.14 442.73 120.6 432.29 121.12 422.03 121.64 411.99 121.6 401.95 121.52 392.34 121.44 383.15 120.92 373.94 120.57 365.1 120.49 356.62 120.3 348.05 120.63 339.77 121.56 331.73 122.75 323.52 124.75 315.46 127.57 307.47 130.88 299.21 135.07 290.91 140.12 282.51 145.64 273.74 151.92 264.78 158.85 255.61 166.08 246.06 173.8 236.3 181.88 226.38 189.99 216.25 198.3 206.13 206.72 196.16 214.94 186.35 223.18 177.01 231.38 168.34 239.27 160.31 247.12 153.28 254.92 147.43 262.39 142.52 269.87 138.89 277.39 136.57 284.64 135.02 292.01 134.5 299.52 134.82 306.85 135.2 314.4 135.84 322.21 136.43 329.91 136.18 337.91 135.37 346.26 133.83 354.54 131.04 363.2 127.5 372.25 123.4 381.27 118.55 390.71 113.74 400.6 109.42" stroke-dasharray="3 1" transform="rotate(2.307692307692308, 400, 400)" opacity="0.09"></path><path d="M407.95 120.3C417.62 116.47 427.5 113.93 437.57 112.9 447.65 113.06 457.94 114.9 468.37 118.33 478.82 122.78 489.41 128.42 500.06 134.92 510.66 141.66 521.26 148.66 531.73 155.63 542.03 162.01 552.05 167.95 561.66 173.35 570.87 177.81 579.45 181.71 587.21 185.14 597.39 189.02 610.94 196 613.95 200.11 614.71 204.99 611.01 218.96 608 228.16 606.66 234.99 605.84 242.5 605.92 250.59 607.63 259.04 610.78 267.95 615.57 277.2 622.35 286.68 630.75 296.39 640.57 306.23 651.71 316.2 663.48 326.22 675.3 336.2 686.81 346.24 697.1 356.2 705.48 366.01 711.79 375.85 715.2 385.5 715.38 394.93 712.77 404.35 707.11 413.3 698.91 421.75 689.07 430.19 677.87 438.14 666.02 445.59 654.44 453.05 643.45 460.04 633.54 466.6 625.35 473.23 618.83 479.52 614.05 485.56 611.32 491.83 610.13 498.02 610.19 504.26 611.65 510.98 613.69 517.99 615.89 525.43 618.48 533.6 620.54 542.4 621.77 551.9 622.55 562.21 622.1 573.21 620.33 584.81 617.7 596.87 613.7 609.17 608.4 621.36 602.27 633.2 595.01 644.25 586.82 654.05 578.02 662.45 568.53 668.92 558.54 673.12 548.22 675.35 537.62 675.18 526.87 672.73 516 668.88 505.12 663.52 494.33 657.25 483.53 651.35 472.88 645.92 462.41 641.69 451.98 639.73 441.74 639.95 431.73 642.58 421.75 647.95 411.98 655.34 402.43 664.16 392.88 673.99 383.76 683.31 375.04 691.24 366.3 697.6 357.93 701.21 349.93 701.77 341.86 699.64 334.11 694.5 326.66 686.74 319.1 677.17 311.78 666.08 304.68 654.2 297.4 642.32 290.27 630.83 283.24 620.22 275.96 611.02 268.72 603.25 261.49 596.96 253.95 592.39 246.38 589.09 238.76 586.78 230.85 585.64 222.9 584.9 214.96 584.21 206.83 583.86 198.78 583.03 190.91 581.48 183.05 579.65 175.51 576.83 168.4 573 161.56 568.63 155.32 563.23 149.78 556.89 144.69 550.05 140.42 542.42 137.01 534.14 134.09 525.52 132.01 516.43 130.75 507 129.82 497.39 129.55 487.58 129.85 477.68 130.15 467.72 130.79 457.73 131.68 447.8 132.19 437.87 132.75 428.01 133.28 418.27 133.25 408.52 133.16 399.12 133.04 390.04 132.47 380.94 132.05 372.12 131.85 363.55 131.52 354.91 131.65 346.45 132.34 338.14 133.26 329.67 134.92 321.25 137.37 312.84 140.28 304.17 144.04 295.43 148.64 286.55 153.72 277.38 159.56 268.04 166.09 258.53 172.95 248.77 180.35 238.9 188.16 229 196.09 219.05 204.27 209.26 212.63 199.78 220.88 190.61 229.19 182.03 237.52 174.25 245.6 167.16 253.65 161.1 261.67 156.22 269.4 152.2 277.13 149.38 284.86 147.73 292.34 146.68 299.9 146.5 307.55 146.98 315.02 147.38 322.66 147.89 330.5 148.26 338.22 147.76 346.21 146.68 354.48 144.89 362.69 141.92 371.23 138.27 380.13 134.12 389 129.3 398.27 124.56 407.94 120.3" stroke-dasharray="4 2" transform="rotate(4.615384615384616, 400, 400)" opacity="0.12"></path><path d="M414.55 131.17C423.98 127.39 433.56 124.82 443.27 123.68 452.98 123.63 462.82 125.19 472.73 128.27 482.62 132.36 492.56 137.64 502.44 143.83 512.25 150.34 521.92 157.23 531.35 164.2 540.56 170.74 549.39 176.96 557.69 182.74 565.58 187.67 572.77 192.08 579.11 196 592.27 204.34 599.23 216.26 597.79 221.62 596.01 228 593.76 244.71 595.07 254.9 597.84 262.23 601.96 270.05 607.56 278.27 614.9 286.74 623.61 295.5 633.46 304.46 644.36 313.57 655.66 322.8 666.83 332.07 677.59 341.41 687.11 350.72 694.79 359.95 700.54 369.2 703.63 378.32 703.74 387.27 701.32 396.22 696.11 404.76 688.53 412.88 679.4 421 668.93 428.72 657.74 436.05 646.65 443.4 635.93 450.42 626.05 457.15 617.59 464 610.54 470.67 605.03 477.24 601.36 484.08 599.12 491 598.12 498.09 598.53 505.67 599.64 513.61 601.1 522.02 603.14 531.05 604.93 540.66 606.18 550.85 607.23 561.62 607.33 572.86 606.36 584.42 604.75 596.15 601.93 607.8 597.93 619.05 593.21 629.68 587.41 639.31 580.65 647.52 573.3 654.31 565.19 659.18 556.48 661.91 547.4 662.9 537.91 661.79 528.14 658.73 518.2 654.63 508.13 649.37 498.02 643.52 487.86 638.22 477.74 633.54 467.74 630.08 457.73 628.78 447.86 629.49 438.17 632.38 428.49 637.74 418.97 644.88 409.65 653.28 400.33 662.61 391.39 671.47 382.82 679.1 374.23 685.38 365.97 689.2 358.03 690.27 350.03 688.92 342.3 684.76 334.82 678.09 327.22 669.61 319.82 659.51 312.58 648.41 305.16 637.03 297.84 625.71 290.59 614.93 283.11 605.21 275.63 596.62 268.16 589.29 260.41 583.49 252.64 578.91 244.84 575.37 236.82 573.04 228.8 571.31 220.83 569.89 212.75 569.02 204.82 567.97 197.13 566.51 189.52 565.01 182.28 562.8 175.53 559.77 169.09 556.4 163.27 552.13 158.17 547.01 153.53 541.48 149.69 535.15 146.68 528.14 144.14 520.82 142.4 512.93 141.44 504.61 140.76 496.09 140.69 487.26 141.15 478.2 141.57 469.07 142.3 459.79 143.24 450.44 143.8 441.07 144.38 431.67 144.93 422.26 144.9 412.86 144.8 403.67 144.66 394.7 144.06 385.71 143.58 376.9 143.28 368.24 142.83 359.51 142.79 350.88 143.26 342.3 143.91 333.59 145.26 324.86 147.34 316.09 149.85 307.12 153.17 298.04 157.3 288.85 161.9 279.45 167.27 269.92 173.33 260.31 179.77 250.57 186.77 240.84 194.24 231.2 201.88 221.67 209.85 212.43 218.05 203.63 226.22 195.26 234.52 187.58 242.87 180.77 251.05 174.66 259.24 169.58 267.42 165.63 275.36 162.45 283.3 160.34 291.23 159.26 298.95 158.62 306.7 158.67 314.52 159.23 322.15 159.56 329.92 159.9 337.84 160.02 345.64 159.25 353.64 157.89 361.89 155.86 370.07 152.73 378.53 148.99 387.29 144.81 396.03 140.04 405.11 135.37 414.54 131.18" stroke-dasharray="3 1" transform="rotate(6.923076923076923, 400, 400)" opacity="0.16"></path><path d="M419.81 142.05C428.95 138.32 438.17 135.73 447.44 134.48 456.71 134.25 466.01 135.53 475.29 138.26 484.54 141.97 493.71 146.87 502.74 152.7 511.66 158.95 520.34 165.65 528.67 172.55 536.77 179.17 544.39 185.59 551.42 191.67 558.06 197.03 563.98 201.91 569.05 206.33 579.13 215.9 583.77 228.09 582.63 232.84 581.69 238.26 582.16 252.37 585.05 261.08 588.77 267.35 593.73 274.12 599.99 281.33 607.75 288.76 616.64 296.54 626.42 304.59 636.99 312.78 647.77 321.17 658.27 329.66 668.26 338.23 677.03 346.86 684.04 355.47 689.27 364.11 692.04 372.7 692.1 381.19 689.87 389.69 685.07 397.88 678.09 405.77 669.66 413.65 659.91 421.25 649.38 428.58 638.83 435.97 628.45 443.15 618.69 450.18 610.08 457.35 602.65 464.48 596.52 471.64 592.03 479.09 588.85 486.72 586.84 494.6 586.21 502.91 586.35 511.61 586.98 520.75 588.33 530.38 589.65 540.46 590.68 550.97 591.73 561.81 592.1 572.9 591.63 584.05 590.74 595.09 588.83 605.79 585.89 615.84 582.37 625.11 577.83 633.21 572.38 639.83 566.39 645.05 559.61 648.45 552.17 649.88 544.36 649.83 536.03 647.97 527.33 644.51 518.43 640.32 509.27 635.3 499.97 629.94 490.58 625.3 481.14 621.36 471.7 618.64 462.25 617.95 452.85 619.11 443.54 622.21 434.24 627.53 425.04 634.42 415.98 642.41 406.91 651.23 398.17 659.64 389.74 666.96 381.29 673.12 373.12 677.11 365.21 678.63 357.24 677.98 349.49 674.72 341.94 669.1 334.27 661.71 326.75 652.65 319.35 642.43 311.78 631.71 304.28 620.76 296.81 610.05 289.14 600.05 281.48 590.89 273.8 582.75 265.92 575.91 258.02 570.17 250.12 565.43 242.08 561.9 234.08 559.07 226.19 556.72 218.27 555.07 210.55 553.49 203.12 551.76 195.85 550.21 189 548.2 182.67 545.6 176.67 542.85 171.32 539.37 166.69 535.14 162.52 530.64 159.12 525.4 156.53 519.48 154.36 513.31 152.95 506.53 152.26 499.25 151.81 491.79 151.93 483.92 152.52 475.72 153.05 467.44 153.85 458.9 154.83 450.17 155.42 441.42 156.02 432.51 156.57 423.48 156.55 414.46 156.46 405.52 156.3 396.7 155.68 387.85 155.15 379.08 154.78 370.37 154.23 361.61 154.05 352.85 154.32 344.1 154.73 335.23 155.77 326.31 157.5 317.32 159.61 308.19 162.49 298.97 166.14 289.66 170.25 280.24 175.12 270.77 180.67 261.29 186.62 251.83 193.16 242.47 200.2 233.34 207.48 224.43 215.13 215.93 223.06 207.99 231.05 200.54 239.22 193.84 247.49 188.03 255.68 182.9 263.91 178.77 272.15 175.68 280.23 173.25 288.32 171.76 296.39 171.13 304.29 170.79 312.21 170.98 320.17 171.52 327.97 171.73 335.86 171.86 343.86 171.69 351.74 170.64 359.79 169.01 368.01 166.75 376.17 163.47 384.55 159.65 393.18 155.47 401.78 150.76 410.65 146.17 419.79 142.05" stroke-dasharray="0 1" transform="rotate(9.230769230769232, 400, 400)" opacity="0.20"></path><path d="M423.22 152.93C432.04 149.26 440.85 146.66 449.62 145.31 458.38 144.9 467.07 145.91 475.65 148.29 484.19 151.63 492.56 156.12 500.68 161.57 508.68 167.49 516.35 173.95 523.6 180.71 530.62 187.31 537.11 193.84 542.98 200.14 548.51 205.85 553.32 211.16 557.33 216.04 565.1 227.02 568.66 240.16 568.14 244.64 568.23 249.44 571.49 261.59 575.84 269.06 580.39 274.4 586.05 280.24 592.82 286.53 600.86 292.98 609.8 299.83 619.39 306.99 629.57 314.28 639.77 321.82 649.58 329.55 658.83 337.34 666.86 345.27 673.24 353.28 677.97 361.3 680.45 369.38 680.46 377.46 678.4 385.55 674.01 393.44 667.6 401.15 659.84 408.86 650.79 416.42 640.94 423.83 630.95 431.3 620.98 438.7 611.42 446.07 602.78 453.59 595.09 461.18 588.49 468.9 583.31 476.87 579.29 485.09 576.37 493.58 574.75 502.43 573.92 511.63 573.68 521.18 574.23 531.07 574.93 541.27 575.54 551.71 576.37 562.26 576.74 572.83 576.5 583.22 576.03 593.29 574.75 602.81 572.6 611.5 570.02 619.3 566.54 625.86 562.2 630.93 557.41 634.71 551.85 636.79 545.6 637.13 539 636.24 531.84 633.85 524.21 630.17 516.38 626.05 508.2 621.37 499.78 616.57 491.25 612.6 482.55 609.4 473.77 607.37 464.96 607.25 456.11 608.8 447.26 612.08 438.42 617.33 429.59 623.95 420.82 631.53 412.05 639.86 403.53 647.83 395.25 654.82 386.95 660.84 378.87 664.94 370.99 666.84 363.06 666.81 355.29 664.4 347.66 659.77 339.93 653.45 332.3 645.45 324.75 636.18 317.06 626.25 309.41 615.85 301.78 605.41 293.99 595.39 286.2 585.92 278.41 577.21 270.47 569.55 262.54 562.83 254.66 557.03 246.7 552.34 238.83 548.39 231.12 545.02 223.46 542.44 216.05 540.1 208.99 537.82 202.13 535.89 195.73 533.73 189.87 531.19 181.95 527.15 170.22 515.95 166.55 508.65 164.76 503.4 163.66 497.56 163.22 491.19 162.99 484.67 163.26 477.69 163.97 470.29 164.59 462.83 165.44 455.02 166.44 446.91 167.06 438.78 167.66 430.39 168.21 421.78 168.21 413.17 168.11 404.53 167.95 395.9 167.33 387.26 166.78 378.61 166.35 369.93 165.72 361.22 165.41 352.47 165.51 343.66 165.7 334.78 166.47 325.83 167.87 316.81 169.59 307.73 172.04 298.57 175.22 289.38 178.82 280.18 183.16 271 188.17 261.92 193.59 252.95 199.61 244.2 206.16 235.78 212.98 227.68 220.22 220.06 227.79 213.08 235.49 206.61 243.41 200.93 251.49 196.12 259.56 191.94 267.71 188.68 275.92 186.36 284.03 184.56 292.16 183.57 300.29 183.28 308.3 183.13 316.32 183.36 324.36 183.81 332.28 183.84 340.25 183.71 348.29 183.25 356.24 181.91 364.3 180.03 372.47 177.55 380.6 174.15 388.88 170.27 397.33 166.09 405.77 161.45 414.4 156.97 423.21 152.93" stroke-dasharray="0 3" transform="rotate(11.538461538461538, 400, 400)" opacity="0.23"></path><path d="M424.49 163.8C432.93 160.2 441.28 157.61 449.5 156.16 457.7 155.59 465.76 156.34 473.61 158.39 481.41 161.34 488.96 165.42 496.18 170.46 503.29 176.01 510 182.16 516.24 188.7 522.27 195.21 527.76 201.75 532.62 208.18 537.22 214.14 541.13 219.8 544.33 225.1 550.59 237.52 554.17 252.16 554.5 256.67 555.74 261.21 561.75 272.08 567.39 278.61 572.64 283.23 578.86 288.3 586 293.79 594.17 299.41 603.04 305.43 612.36 311.79 622.07 318.25 631.66 325 640.77 332.02 649.29 339.08 656.62 346.35 662.38 353.79 666.65 361.24 668.85 368.83 668.81 376.54 666.93 384.24 662.92 391.88 657.05 399.44 649.93 407.02 641.58 414.55 632.41 422.06 623.01 429.63 613.5 437.23 604.23 444.9 595.66 452.71 587.83 460.67 580.89 468.8 575.15 477.14 570.44 485.74 566.7 494.6 564.16 503.7 562.41 513.09 561.28 522.72 560.98 532.52 560.96 542.48 561.01 552.48 561.41 562.41 561.56 572.15 561.3 581.52 560.99 590.41 560.06 598.59 558.43 605.82 555.18 614.68 544.35 623.81 536.89 623.74 531.4 622.23 525.31 619.5 518.72 615.77 511.93 611.86 504.73 607.61 497.2 603.42 489.55 600.13 481.66 597.64 473.59 596.27 465.47 596.66 457.23 598.55 448.9 601.97 440.56 607.13 432.17 613.48 423.74 620.65 415.31 628.51 407.05 636.02 398.95 642.69 390.84 648.54 382.88 652.7 375.05 654.91 367.18 655.44 359.42 653.79 351.75 650.1 344 644.81 336.31 637.86 328.67 629.6 320.93 620.55 313.2 610.85 305.48 600.88 297.66 591.07 289.84 581.53 282.04 572.52 274.16 564.29 266.32 556.81 258.56 550.13 250.8 544.41 243.18 539.41 235.76 535.02 228.46 531.42 221.45 528.19 214.83 525.18 205.51 521.33 190.11 513.15 184.31 508.26 179.84 502.84 174.94 489.21 174.33 480.98 174.29 475.23 174.7 469 175.5 462.32 176.18 455.58 177.06 448.43 178.07 440.92 178.7 433.4 179.31 425.53 179.85 417.36 179.86 409.19 179.78 400.91 179.62 392.55 179.01 384.2 178.44 375.75 177.98 367.23 177.29 358.7 176.89 350.08 176.84 341.4 176.84 332.68 177.36 323.9 178.44 315.07 179.81 306.23 181.84 297.37 184.55 288.55 187.65 279.79 191.45 271.14 195.91 262.67 200.76 254.4 206.22 246.44 212.21 238.89 218.51 231.7 225.26 225.07 232.38 219.1 239.67 213.64 247.23 208.95 255.01 205.09 262.83 201.78 270.79 199.29 278.84 197.63 286.85 196.35 294.91 195.72 302.99 195.65 311 195.58 319.03 195.77 327.06 196.06 335.02 195.87 343 195.45 351.02 194.68 358.97 193.06 366.98 190.93 375.06 188.26 383.1 184.75 391.24 180.84 399.48 176.68 407.7 172.13 416.04 167.75 424.48 163.81" stroke-dasharray="2 0" transform="rotate(13.846153846153847, 400, 400)" opacity="0.27"></path><path d="M423.49 174.68C431.51 171.16 439.36 168.57 447.01 167.05 454.64 166.32 462.04 166.83 469.17 168.55 476.25 171.11 483.01 174.78 489.4 179.38 495.67 184.53 501.52 190.32 506.88 196.57 512.06 202.89 516.71 209.36 520.77 215.81 524.64 221.93 527.89 227.85 530.53 233.48 533.95 240.96 538.1 253.61 539.24 259.03 540.56 263.76 544.35 273.14 547.65 278.17 550.93 281.55 554.91 285.26 559.68 289.34 565.48 293.44 572.09 297.95 579.46 302.84 587.64 307.79 596.32 313.13 605.28 318.83 614.47 324.59 623.43 330.67 631.84 337.06 639.63 343.47 646.28 350.16 651.47 357.08 655.3 364.02 657.25 371.17 657.17 378.53 655.45 385.89 651.79 393.29 646.44 400.71 639.95 408.15 632.27 415.65 623.78 423.21 614.98 430.83 605.98 438.56 597.06 446.42 588.67 454.39 580.81 462.54 573.67 470.88 567.52 479.38 562.23 488.1 557.81 497.02 554.45 506.09 551.84 515.33 549.86 524.7 548.7 534.08 547.9 543.47 547.29 552.72 547.14 561.75 546.89 570.43 546.4 578.57 545.59 589.54 541.24 605.44 537.38 609.65 532.51 611.05 519.23 606.48 511.01 601.42 505.17 597.82 498.88 594.08 492.22 590.53 485.44 587.91 478.35 586.1 471 585.34 463.59 586.19 455.98 588.36 448.21 591.88 440.42 596.93 432.5 603 424.46 609.77 416.42 617.16 408.46 624.24 400.59 630.57 392.71 636.22 384.91 640.4 377.19 642.86 369.44 643.86 361.75 642.9 354.1 640.07 346.41 635.76 338.73 629.85 331.09 622.62 323.37 614.52 315.67 605.64 307.98 596.31 300.23 586.9 292.5 577.55 284.82 568.48 277.11 559.94 269.48 551.96 261.98 544.61 254.53 538.06 247.26 532.14 240.25 526.82 233.39 522.24 226.87 518.09 220.77 514.25 212.26 509.31 198.52 499.88 193.5 494.84 189.71 489.57 185.84 476.94 185.58 469.45 185.7 464.26 186.22 458.6 187.09 452.49 187.82 446.35 188.72 439.79 189.73 432.82 190.36 425.84 190.96 418.49 191.49 410.78 191.52 403.07 191.44 395.19 191.29 387.19 190.71 379.19 190.14 371.07 189.66 362.84 188.94 354.62 188.46 346.3 188.29 337.92 188.13 329.55 188.43 321.13 189.24 312.69 190.27 304.32 191.91 295.97 194.18 287.73 196.79 279.62 200.06 271.68 203.95 264.01 208.22 256.59 213.09 249.54 218.49 242.96 224.21 236.76 230.39 231.14 236.97 226.19 243.76 221.7 250.87 217.94 258.22 214.94 265.68 212.39 273.32 210.55 281.08 209.41 288.86 208.51 296.73 208.13 304.64 208.16 312.52 208.09 320.44 208.15 328.36 208.21 336.24 207.76 344.14 207.04 352.04 205.96 359.91 204.08 367.8 201.71 375.71 198.88 383.61 195.29 391.54 191.36 399.5 187.24 407.46 182.79 415.46 178.53 423.48 174.69" stroke-dasharray="2 4" transform="rotate(16.153846153846153, 400, 400)" opacity="0.31"></path><path d="M420.31 185.56C427.88 182.13 435.21 179.56 442.28 177.97 449.33 177.11 456.1 177.38 462.55 178.78 468.95 180.97 474.99 184.2 480.64 188.36 486.19 193.07 491.3 198.46 495.93 204.36 500.44 210.42 504.44 216.71 507.92 223.09 511.27 229.26 514.09 235.32 516.42 241.19 519.58 249.21 524.07 263.21 525.83 269.31 528.03 274.66 534.1 284.81 538.62 289.95 542.63 293.29 547.28 296.87 552.62 300.73 558.83 304.55 565.69 308.7 573.13 313.19 581.21 317.68 589.61 322.52 598.14 327.72 606.76 332.93 615.07 338.48 622.78 344.35 629.87 350.24 635.87 356.43 640.51 362.91 643.92 369.39 645.64 376.16 645.53 383.2 643.96 390.24 640.64 397.4 635.79 404.65 629.88 411.93 622.87 419.33 615.04 426.85 606.87 434.43 598.4 442.15 589.9 450.03 581.77 457.99 574 466.14 566.77 474.45 560.35 482.84 554.64 491.41 549.65 500.1 545.6 508.83 542.23 517.62 539.45 526.4 537.47 535.09 535.88 543.63 534.57 551.89 533.76 559.82 532.98 567.28 532.11 574.11 524.24 593.27 508.39 591.99 501.35 587.18 496.35 583.99 490.88 580.81 485 577.91 479.03 575.95 472.69 574.77 466.04 574.57 459.34 575.82 452.37 578.24 445.16 581.81 437.94 586.73 430.52 592.52 422.91 598.9 415.3 605.82 407.69 612.46 400.11 618.45 392.52 623.89 384.95 628.04 377.41 630.69 369.85 632.09 362.3 631.74 354.77 629.69 347.22 626.31 339.66 621.4 332.12 615.19 324.54 608.09 316.98 600.11 309.44 591.54 301.89 582.73 294.37 573.77 286.94 564.88 279.53 556.3 272.23 548.07 265.1 540.3 258.07 533.15 251.26 526.52 244.74 520.41 238.41 514.96 232.45 509.94 226.91 505.28 219.29 499.15 207.24 488 202.97 482.48 199.84 476.99 196.94 464.61 196.97 457.53 197.53 450.04 199.96 433 201.4 423.47 202.02 416.97 202.61 410.1 203.13 402.85 203.17 395.61 203.12 388.18 202.98 380.61 202.42 373.04 201.88 365.34 201.4 357.54 200.67 349.76 200.14 341.9 199.88 333.99 199.59 326.12 199.7 318.25 200.26 310.41 201 302.66 202.28 295.01 204.13 287.53 206.27 280.21 209.03 273.13 212.37 266.38 216.05 259.9 220.31 253.83 225.1 248.26 230.19 243.05 235.76 238.42 241.75 234.43 247.96 230.83 254.52 227.9 261.36 225.64 268.34 223.71 275.54 222.39 282.89 221.62 290.32 220.98 297.86 220.72 305.47 220.75 313.09 220.57 320.77 220.44 328.46 220.24 336.15 219.49 343.84 218.46 351.53 217.07 359.21 214.94 366.89 212.38 374.55 209.4 382.21 205.75 389.86 201.83 397.49 197.77 405.12 193.43 412.73 189.29 420.3 185.56" stroke-dasharray="3 3" transform="rotate(18.461538461538463, 400, 400)" opacity="0.34"></path><path d="M415.25 196.44C422.33 193.1 429.14 190.56 435.66 188.93 442.15 187.94 448.33 187.99 454.17 189.09 459.96 190.91 465.38 193.72 470.4 197.43 475.35 201.68 479.88 206.63 483.96 212.12 487.97 217.84 491.52 223.87 494.63 230.07 497.67 236.17 500.29 242.26 502.52 248.26 505.73 256.66 511.06 271.81 513.6 278.57 516.75 284.59 525 295.78 530.6 301.24 535.21 304.72 540.39 308.36 546.14 312.19 552.6 315.93 559.57 319.92 566.97 324.19 574.82 328.42 582.86 332.96 590.89 337.82 598.91 342.66 606.56 347.82 613.57 353.3 619.99 358.78 625.37 364.58 629.5 370.69 632.53 376.8 634.03 383.22 633.89 389.96 632.46 396.7 629.47 403.6 625.08 410.64 619.74 417.7 613.35 424.92 606.18 432.29 598.64 439.69 590.74 447.25 582.71 454.97 574.92 462.72 567.34 470.63 560.14 478.66 553.58 486.7 547.58 494.85 542.17 503.02 537.56 511.15 533.55 519.23 530.07 527.18 527.33 534.94 524.99 542.44 522.97 549.55 520.78 559.37 517.02 574.89 514.92 580.05 509.32 583.38 496.34 577.52 490.23 573.14 483.51 569.13 467.82 563.96 458.99 563.97 452.95 565.56 446.59 568.17 439.95 571.77 433.3 576.53 426.38 582.03 419.23 588.02 412.08 594.49 404.88 600.71 397.64 606.35 390.4 611.55 383.13 615.64 375.85 618.42 368.56 620.14 361.26 620.32 353.94 618.97 346.63 616.44 339.3 612.48 331.98 607.26 324.67 601.17 317.36 594.15 310.11 586.45 302.87 578.37 295.7 569.98 288.64 561.49 281.64 553.11 274.79 544.9 268.14 536.97 261.62 529.47 255.35 522.37 249.4 515.69 243.67 509.54 238.31 503.79 233.38 498.39 226.67 491.13 216.3 478.07 212.77 471.86 210.25 465.88 208.21 453.16 208.5 446.21 209.2 438.98 211.68 422.84 213.09 413.88 213.69 407.79 214.27 401.35 214.78 394.57 214.83 387.79 214.79 380.84 214.68 373.75 214.16 366.68 213.64 359.49 213.17 352.23 212.45 345 211.9 337.71 211.57 330.42 211.19 323.2 211.15 316.01 211.5 308.91 211.98 301.93 212.94 295.09 214.4 288.48 216.12 282.05 218.39 275.91 221.2 270.12 224.31 264.61 227.97 259.52 232.13 254.94 236.59 250.67 241.51 246.95 246.85 243.81 252.43 240.99 258.38 238.75 264.62 237.08 271.03 235.63 277.69 234.67 284.53 234.14 291.48 233.62 298.58 233.37 305.77 233.3 313.01 232.95 320.32 232.57 327.66 232.07 335.03 231.03 342.41 229.69 349.78 228.01 357.16 225.65 364.53 222.91 371.86 219.81 379.19 216.13 386.49 212.24 393.73 208.26 400.97 204.05 408.15 200.05 415.24 196.44" stroke-dasharray="0 2" transform="rotate(20.76923076923077, 400, 400)" opacity="0.38"></path><path d="M408.78 207.31C415.37 204.08 421.66 201.59 427.65 199.91 436.45 198.74 452.3 202.15 459.29 206.59 463.77 210.37 467.87 214.85 471.59 219.89 475.26 225.2 478.55 230.89 481.47 236.82 484.4 242.75 487 248.76 489.31 254.75 492.8 263.35 499.31 279.35 502.71 286.68 506.8 293.34 517.03 305.7 523.52 311.61 528.6 315.35 534.15 319.18 540.16 323.13 546.73 326.94 553.67 330.95 560.89 335.16 568.43 339.31 576.03 343.7 583.52 348.36 590.92 352.99 597.89 357.9 604.23 363.11 609.99 368.31 614.79 373.81 618.44 379.62 621.11 385.42 622.41 391.53 622.25 397.97 620.95 404.4 618.26 411.02 614.31 417.78 609.51 424.56 603.74 431.5 597.21 438.58 590.3 445.68 582.99 452.92 575.47 460.27 568.07 467.63 560.77 475.09 553.72 482.6 547.15 490.08 540.99 497.57 535.31 505 530.28 512.32 525.75 519.5 521.7 526.44 518.29 533.15 515.27 539.5 512.58 545.39 502.81 564.84 492.4 569.16 488.25 566.47 483.64 563.17 472.24 556.18 465.49 553.57 458.26 552.8 441.95 556.78 432.96 561.75 426.85 566.34 420.45 571.54 413.78 577.14 407.11 583.17 400.34 588.96 393.5 594.26 386.67 599.2 379.78 603.19 372.84 606.05 365.91 608.03 358.93 608.65 351.95 607.92 344.97 606.15 337.98 603.07 331.01 598.82 324.07 593.71 317.15 587.68 310.29 580.9 303.49 573.67 296.78 566.01 290.2 558.09 283.72 550.13 277.41 542.17 271.32 534.33 265.39 526.75 259.74 519.43 254.41 512.42 249.31 505.8 244.58 499.51 240.29 493.54 234.48 485.31 225.76 470.42 222.91 463.48 220.95 456.86 219.67 443.43 220.15 436.39 220.96 429.21 223.44 413.6 224.79 405.11 225.38 399.35 225.93 393.3 226.42 386.96 226.48 380.63 226.46 374.17 226.38 367.62 225.9 361.08 225.43 354.46 224.99 347.81 224.3 341.2 223.75 334.58 223.38 328.01 222.93 321.51 222.77 315.1 222.95 308.83 223.55 299.7 227.26 282.91 230.49 275.49 234.6 268.82 245.64 258.16 252.46 254.28 260.01 251.24 277.04 247.66 286.31 246.86 292.68 246.34 299.23 246 305.9 245.74 312.64 245.16 319.48 244.5 326.36 243.69 333.29 242.34 340.24 240.71 347.2 238.76 354.17 236.2 361.14 233.31 368.05 230.13 374.98 226.45 381.86 222.61 388.66 218.72 395.46 214.65 402.17 210.8 408.76 207.32" stroke-dasharray="3 0" transform="rotate(23.076923076923077, 400, 400)" opacity="0.42"></path><path d="M401.49 218.19C410.49 213.85 426.99 209.58 434.45 209.96 444.11 212.84 452.45 218.99 459.45 227.72 466.44 237.68 472.29 248.96 477.24 260.75 482.69 272.06 487.88 283.09 493.27 293.59 500.14 302.96 508.04 311.92 517.29 320.66 528.57 328.56 541.25 336.72 554.84 345.37 569.21 353.66 582.95 362.79 594.75 372.88 599.89 377.88 604.13 383.16 607.33 388.72 609.67 394.26 610.79 400.1 610.6 406.23 609.44 412.36 607.03 418.64 603.5 425.06 599.2 431.49 594.02 438.05 588.11 444.72 575.29 458.05 561.32 471.74 547.44 485.42 534.94 498.83 523.8 511.81 514.27 523.75 506.93 534.67 500.84 543.76 495.54 550.36 489.52 556.18 475.57 552.31 465.88 545.93 458.85 543.19 450.39 541.97 440.56 543.22 435.6 545.33 430.32 548.19 424.73 551.74 419.12 556.14 413.23 561.04 407.05 566.26 400.87 571.86 394.57 577.24 388.18 582.18 381.8 586.86 375.33 590.71 368.82 593.6 355.83 597.08 342.68 595.72 329.6 589.82 316.7 580.8 304.03 568.58 291.92 554.45 280.26 539.67 269.47 524.7 259.92 510.29 251.22 496.94 244.09 484.56 238.8 473.12 234.49 462.78 232 452.88 231.34 443.12 231.1 433.85 232.11 424.2 234.08 413.94 235.23 406.21 237.32 389.74 238.06 380.98 238.13 375.07 238.14 369.1 238.08 363.09 237.66 357.09 237.24 351.08 236.84 345.09 235.33 333.21 234.48 321.6 234.6 310.65 234.85 300.14 236.71 290.65 240.26 282.57 244.64 275.24 250.86 269.56 258.69 265.68 267.39 262.33 277.45 260.41 288.5 259.61 300.1 258.18 312.37 256.83 324.98 255.03 337.83 251.24 350.81 246.32 363.66 240.35 370.11 236.69 376.51 232.92 382.83 229.15 389.15 225.24 395.38 221.53 401.48 218.2" stroke-dasharray="3 0" transform="rotate(25.384615384615383, 400, 400)" opacity="0.45"></path><path d="M394.06 229.07C405.29 223.38 415.45 220.44 424.48 220.53 433.47 222.73 441.35 227.96 448.15 235.67 455.05 244.67 461.14 255.15 466.64 266.38 472.75 277.47 478.85 288.56 485.31 299.33 493.13 309.25 501.91 318.81 511.81 328.11 523.3 336.65 535.79 345.28 548.76 354.18 562.11 362.7 574.6 371.83 585.12 381.69 593.62 391.43 598.5 402.1 598.96 413.71 596.05 425.33 589.03 437.39 578.88 449.69 567.28 461.95 554.37 474.3 541.24 486.38 529.04 498.09 517.75 509.09 507.71 518.84 499.47 527.62 492.34 534.53 486.03 539.12 478.53 542.74 463.31 537.98 453.9 532.87 447.29 531.22 439.47 531.06 430.43 533.06 421.33 538.47 411.04 546.17 399.66 555.39 388.28 565.88 376.43 574.86 364.34 581.08 352.34 584.95 340.21 584.63 328.2 580.27 316.42 573.09 304.95 562.77 294.1 550.36 283.74 536.96 274.29 522.9 266.08 508.94 258.65 495.55 252.7 482.8 248.45 470.83 245 459.71 243.17 449.1 242.94 438.82 242.95 429.01 244.04 419.11 245.95 408.96 247.12 398.92 248.44 388.39 249.7 377.37 249.5 366.35 249.13 355.37 248.71 344.67 247.32 334.08 246.48 323.97 246.44 314.66 246.39 305.71 247.72 297.84 250.52 291.34 253.97 285.36 259.08 280.84 265.68 277.82 273.03 275 281.71 273.25 291.41 272.27 301.63 270.46 312.6 268.53 323.98 266.08 335.63 261.8 347.48 256.55 359.26 250.46 371.14 242.97 382.82 235.55 394.05 229.07" stroke-dasharray="2 0" transform="rotate(27.692307692307693, 400, 400)" opacity="0.49"></path><path d="M387.19 239.95C397.49 234.49 406.9 231.5 415.37 231.21 423.84 232.77 431.44 237.1 438.23 243.78 445.2 251.76 451.65 261.29 457.78 271.77 464.53 282.37 471.46 293.23 478.82 303.98 487.34 314.17 496.7 324.12 506.94 333.8 518.36 342.88 530.41 351.93 542.58 361.08 554.83 369.88 566.06 379.07 575.35 388.75 582.8 398.31 587 408.55 587.32 419.48 584.75 430.41 578.55 441.54 569.52 452.67 559.11 463.72 547.32 474.59 535.06 484.94 523.36 494.91 512.19 503.95 501.92 511.64 493.07 518.49 485.14 523.56 477.99 526.56 472 528.59 466.25 528.64 460.46 526.94 455.2 525.18 449.4 522.71 442.86 520.25 436.43 519.64 429.04 520.41 420.64 523.05 412.21 528.58 402.74 535.95 392.31 544.51 381.87 554.17 371.03 562.5 360 568.5 349.07 572.63 338.07 573.17 327.26 570.17 316.7 564.69 306.53 556.25 297.03 545.63 288 533.84 279.89 521.04 273 507.95 266.77 495.02 261.92 482.39 258.6 470.31 255.91 458.81 254.63 447.79 254.73 437.2 254.93 427.01 256.05 416.93 257.86 406.89 258.95 396.96 260.16 386.85 261.34 376.57 261.2 366.3 260.92 356.34 260.6 346.88 259.35 337.5 258.56 328.76 258.44 320.92 258.63 310.08 265.96 294.78 273.48 290.42 279.57 287.84 286.91 286.02 295.26 284.67 304.09 282.38 313.7 279.86 323.8 276.8 334.16 272.1 344.8 266.6 355.47 260.47 366.23 253.21 376.88 246.11 387.19 239.95" stroke-dasharray="3 4" transform="rotate(30, 400, 400)" opacity="0.53"></path><path d="M381.5 250.82C390.93 245.62 399.68 242.6 407.72 241.99 415.78 242.97 423.22 246.45 430.11 252.1 437.22 259.01 444.05 267.51 450.77 277.05 458.07 286.94 465.66 297.29 473.68 307.74 482.64 317.89 492.28 327.93 502.54 337.77 513.62 347.16 525.02 356.49 536.26 365.78 547.34 374.79 557.32 384 565.43 393.46 571.89 402.84 575.48 412.63 575.68 422.83 573.43 433.02 568 443.15 560.03 453.03 550.78 462.82 540.13 472.18 528.84 480.83 517.81 489.12 506.99 496.38 496.77 502.27 487.6 507.5 479.16 511.12 471.38 512.98 464.6 514.25 458.14 513.97 451.79 512.42 445.98 511.15 439.86 509.51 433.28 508.1 426.86 508.44 419.73 510.02 411.83 513.16 403.93 518.72 395.2 525.73 385.67 533.63 376.13 542.47 366.31 550.15 356.39 555.86 346.56 560.13 336.76 561.36 327.23 559.53 317.93 555.59 309.08 548.91 300.94 540.1 293.23 530.05 286.42 518.77 280.75 506.89 275.64 494.85 271.77 482.79 269.27 471.04 267.21 459.62 266.38 448.57 266.71 437.95 267.03 427.62 268.13 417.55 269.81 407.7 270.78 397.95 271.89 388.27 272.99 378.7 272.89 369.13 272.71 360.1 272.5 351.74 271.42 343.43 270.72 335.88 270.57 329.25 270.5 320.05 276.07 307.12 282.15 303.19 287.09 300.61 293.19 298.52 300.25 296.68 307.72 293.87 315.99 290.77 324.8 287.17 333.85 282.14 343.26 276.48 352.81 270.39 362.43 263.39 372.06 256.65 381.5 250.82" stroke-dasharray="4 3" transform="rotate(32.30769230769231, 400, 400)" opacity="0.56"></path><path d="M377.52 261.7C386.14 256.76 394.31 253.77 401.98 252.88 409.7 253.33 417.04 256.02 424.06 260.69 431.3 266.52 438.45 273.89 445.63 282.39 453.33 291.36 461.33 300.95 469.72 310.82 478.84 320.6 488.45 330.43 498.44 340.14 508.95 349.57 519.53 358.93 529.72 368.19 539.61 377.24 548.37 386.35 555.37 395.52 560.92 404.62 563.94 413.9 564.04 423.32 562.09 432.74 557.36 441.84 550.39 450.48 542.27 459.04 532.76 466.98 522.51 474.07 512.31 480.87 502.05 486.61 492.12 491.05 482.94 495.04 474.26 497.63 466.12 498.79 458.78 499.67 451.77 499.4 444.96 498.26 438.65 497.63 432.23 496.87 425.55 496.45 419.06 497.64 412.1 499.88 404.6 503.39 397.13 508.89 389.04 515.51 380.35 522.76 371.67 530.8 362.84 537.82 354.03 543.19 345.3 547.47 336.7 549.22 328.45 548.37 320.4 545.77 312.85 540.72 306.03 533.66 299.55 525.39 293.95 515.77 289.4 505.34 285.27 494.54 282.25 483.45 280.41 472.43 278.87 461.52 278.37 450.83 278.85 440.51 279.23 430.37 280.25 420.52 281.77 411.01 282.63 401.57 283.61 392.37 284.63 383.47 284.58 374.58 284.49 366.38 284.4 358.95 283.21 348.24 282.6 331.24 284.11 325.09 286.82 319.73 298.11 311.8 306.5 308.17 312.71 304.84 319.71 301.21 327.29 297.16 335.06 291.9 343.28 286.19 351.73 280.21 360.25 273.53 368.9 267.18 377.52 261.7" stroke-dasharray="1 1" transform="rotate(34.61538461538461, 400, 400)" opacity="0.60"></path><path d="M375.63 272.58C383.49 267.93 391.12 264.99 398.46 263.87 405.86 263.88 413.09 265.83 420.17 269.56 427.46 274.33 434.81 280.57 442.26 287.93 450.12 295.84 458.28 304.47 466.75 313.51 475.72 322.64 485.03 331.94 494.5 341.22 504.24 350.38 513.85 359.49 522.94 368.48 531.63 377.35 539.21 386.18 545.16 394.91 549.87 403.62 552.39 412.31 552.39 420.91 550.72 429.52 546.65 437.61 540.62 445.09 533.57 452.49 525.2 459.16 516.04 464.94 506.76 470.51 497.24 475.05 487.83 478.43 478.9 481.55 470.27 483.52 462.04 484.37 454.41 485.19 447.08 485.2 439.98 484.65 433.31 484.73 426.64 484.84 419.89 485.32 413.34 487.22 406.51 489.99 399.36 493.74 392.26 499.1 384.75 505.28 376.86 511.88 368.97 519.14 361.09 525.51 353.36 530.49 345.68 534.69 338.24 536.79 331.22 536.72 324.35 535.26 318.02 531.65 312.4 526.21 307.05 519.67 302.51 511.76 298.93 502.92 295.64 493.59 293.32 483.78 292.01 473.82 290.86 463.8 290.59 453.84 291.13 444.14 291.5 434.51 292.42 425.14 293.76 416.14 294.49 407.19 295.35 398.55 296.27 390.31 296.27 382.07 296.27 374.6 296.29 367.93 295.38 358.31 294.9 343.09 296.09 337.42 298.15 332.18 307.15 323.43 314.04 319.02 319.14 315.23 324.99 311.17 331.44 306.77 338.04 301.4 345.13 295.72 352.56 289.93 360.03 283.62 367.76 277.69 375.63 272.58" stroke-dasharray="1 1" transform="rotate(36.92307692307693, 400, 400)" opacity="0.63"></path><path d="M375.99 283.45C383.15 279.12 390.25 276.26 397.25 274.98 404.31 274.6 411.35 275.91 418.39 278.78 425.6 282.54 432.94 287.65 440.42 293.84 448.21 300.59 456.25 308.11 464.5 316.13 473.07 324.35 481.81 332.85 490.55 341.43 499.37 350.01 507.93 358.59 515.87 367.06 523.38 375.49 529.82 383.82 534.81 391.98 538.75 400.13 540.82 408.14 540.75 415.9 539.32 423.67 535.86 430.81 530.71 437.25 524.67 443.64 517.42 449.25 509.35 453.99 501.08 458.61 492.44 462.3 483.73 465.01 475.29 467.61 466.98 469.3 458.93 470.16 451.3 471.17 443.9 471.63 436.72 471.76 429.88 472.55 423.12 473.46 416.39 474.72 409.84 477.18 403.17 480.32 396.37 484.19 389.62 489.33 382.65 495.04 375.51 501 368.36 507.5 361.37 513.22 354.64 517.78 344.76 522.95 327.27 522.89 320.08 517.71 315.71 512.78 312.08 506.53 309.29 499.32 306.68 491.58 304.91 483.22 303.99 474.56 303.12 465.72 302.97 456.8 303.51 447.98 303.83 439.17 304.6 430.53 305.75 422.22 306.34 413.92 307.08 405.93 307.91 398.35 307.95 390.78 308.03 383.95 308.17 377.87 307.54 369.09 307.34 354.97 308.35 349.43 309.97 344.06 317.19 334.26 322.83 329.14 326.98 324.99 331.84 320.61 337.3 316 342.85 310.63 348.93 305.09 355.43 299.57 361.95 293.67 368.83 288.18 375.99 283.45" stroke-dasharray="4 1" transform="rotate(39.23076923076923, 400, 400)" opacity="0.67"></path><path d="M378.58 294.33C385.06 290.33 391.63 287.6 398.24 286.2 404.88 285.52 411.63 286.27 418.46 288.35 425.42 291.18 432.55 295.22 439.81 300.25 447.28 305.8 454.93 312.13 462.69 319 470.62 326.14 478.6 333.62 486.43 341.27 494.23 349 501.67 356.79 508.46 364.51 514.83 372.24 520.22 379.88 524.32 387.31 527.56 394.74 529.23 401.98 529.11 408.9 527.91 415.82 525.01 422.08 520.66 427.64 515.57 433.16 509.39 437.94 502.43 441.93 495.21 445.87 487.54 449.02 479.68 451.39 471.93 453.76 464.17 455.45 456.55 456.55 449.19 457.89 441.98 458.89 434.96 459.71 428.18 461.15 421.5 462.74 414.94 464.64 408.51 467.5 402.09 470.87 395.67 474.74 389.3 479.58 382.87 484.8 376.42 490.12 369.97 495.88 363.81 500.95 357.99 505.07 349.49 510.01 334.86 511.6 329.03 508.16 325.47 504.65 322.58 499.94 320.41 494.29 318.33 488.14 316.95 481.32 316.29 474.07 315.59 466.6 315.5 458.91 315.96 451.19 316.19 443.42 316.8 435.71 317.75 428.23 318.2 420.75 318.81 413.5 319.55 406.6 319.71 396.58 319.67 379.73 319.83 372.79 319.85 366.24 322.17 354.98 324.78 349.84 328.09 344.17 338.16 331.8 344.79 324.85 349.45 319.61 354.65 314.3 360.31 309.11 365.99 303.68 372.09 298.65 378.58 294.33" stroke-dasharray="2 4" transform="rotate(41.53846153846154, 400, 400)" opacity="0.71"></path><path d="M383.15 305.21C394.81 298.32 407.24 296.07 420.03 298.32 433.16 302.91 447.05 311.43 461.03 322.45 475.28 334.58 489.04 348.03 500.7 361.54 510.8 375.23 516.94 388.63 517.47 400.79 514.67 412.96 506.64 422.62 495.21 429.61 482.71 436.61 468.69 441.22 454.62 443.9 441.12 447.69 427.86 451.12 415.28 455.06 403.11 461.99 391.08 470.37 379.52 479.25 367.97 489.45 357.87 496.5 349.65 499.31 341.57 499.97 335.62 495.73 332.14 487.69 328.74 478 327.56 465.91 328.44 452.98 328.38 439.73 329.38 426.42 331.2 414.02 330.85 401.63 331.12 391.22 332.14 382.71 331.92 373.79 333.43 366.03 336.89 359.06 340.18 350.68 345.85 342.07 353.68 333.34 361.56 323.02 371.49 313.13 383.15 305.21" stroke-dasharray="2 0" transform="rotate(43.84615384615385, 400, 400)" opacity="0.74"></path><path d="M389.28 316.09C399.64 309.86 410.91 307.43 422.59 308.69 434.48 311.71 446.94 318.09 459.23 326.77 471.5 336.45 483.05 347.53 492.55 358.92 500.72 370.56 505.55 382.06 505.83 392.58 503.6 403.1 497.09 411.54 487.67 417.87 477.25 424.32 465.23 429.06 452.86 432.48 440.7 436.96 428.56 441.29 417.02 445.97 405.73 452.85 394.76 460.59 384.52 468.37 374.28 477.15 365.64 483.34 358.81 486.2 352.02 487.66 347.13 485.19 344.33 479.49 341.42 472.51 340.32 463.19 340.9 452.72 340.63 441.91 341.31 430.63 342.84 419.7 342.65 408.77 343.15 399.17 344.37 390.9 344.51 382.27 346.08 374.35 349.23 366.96 352.09 358.51 356.92 349.93 363.64 341.48 370.32 332 378.92 323.12 389.28 316.09" stroke-dasharray="2 3" transform="rotate(46.15384615384615, 400, 400)" opacity="0.78"></path><path d="M396.41 326.96C405.44 321.45 415.35 318.99 425.61 319.47 435.95 321.2 446.67 325.7 457.02 332.2 467.19 339.51 476.54 348.2 484.01 357.4 490.41 366.84 494.1 376.37 494.18 385.3 492.47 394.22 487.32 401.62 479.77 407.49 471.38 413.53 461.44 418.45 450.97 422.51 440.5 427.44 429.85 432.32 419.65 437.33 409.59 443.87 399.87 450.82 390.95 457.49 382.03 464.89 374.67 470.18 368.97 472.88 361.19 474.16 353.62 461.6 353.32 450.02 352.84 441.57 353.23 432.33 354.48 422.92 354.42 413.51 355.1 404.8 356.47 396.9 356.97 388.74 358.65 380.94 361.59 373.5 364.2 365.34 368.42 357.16 374.23 349.31 379.96 340.86 387.37 333.08 396.41 326.96" stroke-dasharray="2 3" transform="rotate(48.46153846153846, 400, 400)" opacity="0.82"></path><path d="M403.86 337.84C411.53 333.1 419.89 330.74 428.48 330.67 437.09 331.4 445.85 334.32 454.14 338.92 462.2 344.09 469.43 350.53 475.05 357.61 479.89 364.88 482.6 372.47 482.54 379.84 481.26 387.21 477.34 393.65 471.51 399.1 465.02 404.71 457.16 409.67 448.69 414.08 440.12 419.12 431.24 424.14 422.63 429.09 414.07 435.04 405.78 441.06 398.22 446.61 380.33 458.02 366.3 453.23 365.64 444.73 364.99 438.42 365.14 431.13 366.12 423.29 366.17 415.44 366.96 407.78 368.42 400.52 369.2 393.09 370.98 385.78 373.76 378.72 376.23 371.25 379.97 363.84 384.98 356.87 389.89 349.59 396.2 343.01 403.86 337.84" stroke-dasharray="1 0" transform="rotate(50.76923076923077, 400, 400)" opacity="0.85"></path><path d="M410.96 348.72C423.43 341.33 437.76 341.32 450.39 347.02 462.22 354.13 470.41 365.15 470.9 376.9 468.35 388.64 458.52 398.87 445.78 407.21 432.49 417.14 417.97 427.36 405.65 435.74 389.27 447.17 376.37 437.89 377.76 420.75 377.37 408.23 380.1 394.97 385.49 382.77 389.92 369.76 398.49 357.21 410.96 348.72" stroke-dasharray="3 3" transform="rotate(53.07692307692307, 400, 400)" opacity="0.89"></path><path d="M417.04 359.6C426.53 353.79 436.9 353.1 445.61 356.53 453.78 360.66 459.18 368.02 459.26 376.83 457.66 385.64 450.97 394.27 442.01 401.8 432.62 410.17 421.95 418.48 412.56 424.86 399.92 433.33 388.78 428.03 389.41 415.63 389.34 406.31 391.95 395.73 396.58 385.84 400.61 375.67 407.56 366.04 417.04 359.6" stroke-dasharray="1 1" transform="rotate(55.38461538461539, 400, 400)" opacity="0.93"></path><path d="M421.55 370.47C434.33 362.84 447.15 367.85 447.62 379.65 445.19 391.45 430.99 405.85 418.31 413.98 405.61 423.34 398.86 420.85 401.05 408.55 400.63 396.25 408.76 379.26 421.55 370.47" stroke-dasharray="3 3" transform="rotate(57.69230769230769, 400, 400)" opacity="0.96"></path></g></svg>