<svg xmlns="http://www.w3.org/2000/svg" version="1.1" xmlns:xlink="http://www.w3.org/1999/xlink" xmlns:svgjs="http://svgjs.dev/svgjs" viewBox="0 0 800 800"><defs><linearGradient x1="50%" y1="0%" x2="50%" y2="100%" id="ccchaos-grad"><stop stop-color="#BD99FF" stop-opacity="1" offset="0%"></stop><stop stop-color="#19E5B0" stop-opacity="1" offset="100%"></stop></linearGradient></defs><g stroke-width="3.5" stroke="url(#ccchaos-grad)" fill="none" stroke-linecap="round"><path d="M362.54 102.51C366.78 86.39 385.75 83.34 394.87 97.37Q401.4 106.52 408.53 115.99 416.19 125.78 424.31 135.88 432.77 146.26 441.49 156.91 450.33 167.78 459.17 178.84 467.89 190.03 476.37 201.3 484.48 212.59 492.12 223.85 499.17 235.01 505.56 246.02 511.22 256.81 516.09 267.33 520.15 277.53 523.4 287.37 525.84 296.8 527.52 305.81 528.61 322.25 528.16 337.35 526.39 350.4 524.66 362.45 526.19 381.53 530.83 395.23 539.84 407.41 551.66 420.74 559.14 428.21 567.43 436.22 576.41 444.8 585.98 453.97 596 463.72 606.31 474.06 616.75 484.95 627.16 496.36 637.37 508.25 647.21 520.54 656.53 533.17 665.17 546.06 673.02 559.11 679.96 572.23 685.91 585.32 690.82 598.29 694.64 611.03 697.39 623.45 699.09 635.45 699.81 646.96 699.63 657.9 698.66 668.22 697.04 677.86 694.94 686.79 692.51 695 689.95 702.48C686.42 712.02 667.23 731.94 653.64 732.9Q636.87 723.68 620.1 706.16 603.34 686.44 586.57 671.39 569.81 666.25 553.04 672.81 536.28 688.79 519.51 708.62 502.75 725.39 485.98 733.27 469.22 729.5 452.45 715.41 435.68 695.89 418.92 677.75 402.15 667.31 385.39 668.2 368.62 680.11 351.86 698.89 335.09 718.01 318.33 730.8 301.56 732.81 284.8 723.34 268.03 705.68 251.27 686 234.5 671.13 217.74 666.27 200.97 673.1 184.21 689.25 167.44 709.08 150.68 725.7 133.91 733.32 117.15 729.27C103.55 718.27 96.34 693.66 104.12 687.48Q115.29 677.12 126.58 665.07 132.19 657.93 137.71 650.1 143.1 641.57 148.33 632.36 153.35 622.48 158.13 611.97 162.65 600.88 166.89 589.28 170.84 577.25 174.49 564.85 177.86 552.19 180.95 539.35 183.8 526.43 186.44 513.53 188.9 500.74 191.25 488.14 193.52 475.83 195.79 463.86 198.11 452.32 200.54 441.24 203.15 430.68 205.99 420.66 209.11 411.19 212.56 402.29 216.38 393.93 220.6 386.11 230.48 372.08 241.59 359.22 254.48 347.68 268.16 336.48 275.3 330.9 282.51 325.21 289.69 319.35 296.77 313.25 303.66 306.87 310.3 300.14 316.59 293.05 322.49 285.55 327.93 277.63 332.87 269.29 337.29 260.53 341.16 251.35 344.48 241.79 347.27 231.87 349.57 221.63 351.41 211.11 352.85 200.37 353.98 189.46 354.86 178.43 355.6 167.35 356.29 156.25 357.03 145.21 357.93 134.28 359.08 123.49 361.57 107.7 362.54 102.51" stroke-dasharray="5 5" transform="rotate(0, 400, 400)" opacity="0.05"></path><path d="M365.9 112.77C368.91 97.22 387.26 94.21 397.26 107.67Q404.19 116.44 411.6 125.53 419.42 134.91 427.54 144.6 435.89 154.56 444.35 164.78 452.81 175.22 461.17 185.85 469.31 196.63 477.13 207.51 484.53 218.44 491.41 229.36 497.7 240.23 503.34 250.98 508.26 261.56 512.46 271.92 515.9 282.01 518.6 291.78 520.58 301.21 521.89 310.25 522.55 326.87 521.92 342.22 520.27 355.51 518.77 367.73 520.55 386.35 525.11 399.24 533.62 410.1 544.73 421.75 551.74 428.19 559.5 435.07 567.93 442.43 576.93 450.31 586.39 458.74 596.17 467.71 606.14 477.24 616.15 487.31 626.04 497.91 635.68 508.98 644.91 520.5 653.61 532.4 661.64 544.61 668.91 557.06 675.32 569.68 680.8 582.37 685.32 595.05 688.84 607.62 691.37 620 692.94 632.1 693.62 643.83 693.46 655.12 692.59 665.91 691.12 676.12 689.18 685.72 686.93 694.67C683.47 706.35 664.17 721.91 650.94 717.28Q634.61 703.36 618.29 684.7 601.97 667.36 585.65 656.94 569.33 656.81 553.01 667.02 536.69 684.26 520.37 702.95 504.05 717.05 487.72 721.98 471.4 716.16 455.08 701.46 438.76 682.65 422.44 665.81 406.12 656.39 389.8 657.45 373.48 668.64 357.16 686.33 340.84 704.81 324.52 718.08 308.19 721.86 291.87 714.93 275.55 699.51 259.23 680.62 242.91 664.35 226.59 655.98 210.27 658.21 193.95 670.33 177.63 688.41 161.31 706.59 144.99 719 128.67 721.62C115.43 715.85 108.71 694.26 116.46 686.75Q121.93 680.86 127.42 674.36 132.92 667.22 138.36 659.43 143.72 650.99 148.95 641.91 154.03 632.21 158.9 621.94 163.56 611.13 167.96 599.85 172.1 588.17 175.96 576.16 179.54 563.9 182.84 551.48 185.88 538.98 188.67 526.5 191.25 514.11 193.65 501.89 195.91 489.93 198.08 478.28 200.2 467.01 202.35 456.18 204.56 445.81 206.9 435.95 209.42 426.6 212.18 417.79 218.74 401.96 226.36 387.56 235.9 375.16 246.61 363.64 259.03 352.93 272.22 342.3 279.12 336.87 286.11 331.27 293.09 325.45 300.01 319.36 306.78 312.95 313.33 306.19 319.6 299.05 325.52 291.52 331.04 283.59 336.11 275.26 340.69 266.53 344.77 257.43 348.34 247.98 351.39 238.21 353.95 228.16 356.04 217.88 357.72 207.4 359.03 196.79 360.04 186.08 360.83 175.34 361.49 164.62 362.1 153.95 362.75 143.4 363.54 132.99 365.23 117.77 365.9 112.77" stroke-dasharray="4 9" transform="rotate(2.307692307692308, 400, 400)" opacity="0.09"></path><path d="M369.98 123.01C371.99 108.06 389.77 105.07 400.41 117.96Q407.59 126.36 415.13 135.06 422.94 144.04 430.93 153.31 439.01 162.84 447.1 172.63 455.08 182.64 462.87 192.84 470.37 203.2 477.49 213.67 484.15 224.21 490.28 234.78 495.82 245.32 500.73 255.79 504.96 266.13 508.52 276.29 511.39 286.24 513.6 295.91 515.17 305.29 516.15 314.33 516.46 331.09 515.7 346.66 514.19 360.25 512.91 372.72 514.93 391.23 519.4 403.66 527.44 413.54 537.85 423.86 544.4 429.43 551.65 435.34 559.54 441.63 567.98 448.34 576.88 455.51 586.12 463.18 595.59 471.36 605.16 480.05 614.7 489.27 624.07 499 633.15 509.21 641.82 519.87 649.95 530.96 657.44 542.4 664.21 554.15 670.17 566.14 675.28 578.29 679.49 590.54 682.8 602.8 685.19 614.99 686.72 627.03 687.41 638.84 687.35 650.34 686.61 661.46 685.31 672.13 683.57 682.31C680.54 695.97 661.64 707.32 648.76 698.23Q632.88 681.65 616.99 663.86 601.11 650.21 585.23 644.78 569.35 649.2 553.47 662.15 537.59 679.74 521.71 696.7 505.83 707.95 489.95 710.1 474.07 702.52 458.19 687.47 442.31 669.48 426.42 653.93 410.54 645.49 394.66 646.69 378.78 657.17 362.9 673.79 347.02 691.56 331.14 705.15 315.26 710.5 299.38 705.98 283.5 692.97 267.61 675.35 251.73 658.42 235.85 647.26 219.97 645.2 204.09 652.87 188.21 667.97 172.33 685.96 156.45 701.46 140.56 709.82C127.68 709.53 121.37 691.76 129.01 682.43Q134.35 675.22 139.67 667.39 144.94 658.95 150.12 649.93 155.18 640.34 160.09 630.22 164.81 619.63 169.31 608.61 173.58 597.24 177.6 585.58 181.35 573.7 184.84 561.69 188.06 549.62 191.02 537.56 193.75 525.6 196.26 513.8 198.59 502.23 200.77 490.97 202.84 480.05 204.84 469.53 206.84 459.45 208.87 449.83 213.33 432.31 218.36 416.26 224.73 402.5 232.11 389.94 241.32 378.91 251.63 368.45 263.56 358.35 276.25 348.11 282.91 342.75 289.66 337.19 296.44 331.36 303.18 325.23 309.81 318.78 316.26 311.97 322.47 304.8 328.39 297.24 333.96 289.31 339.12 281 343.86 272.33 348.13 263.32 351.92 254.01 355.22 244.41 358.05 234.57 360.41 224.54 362.35 214.34 363.89 204.04 365.1 193.68 366.03 183.29 366.75 172.94 367.34 162.66 367.87 152.49 368.43 142.47 369.54 127.83 369.98 123.01" stroke-dasharray="6 7" transform="rotate(4.615384615384616, 400, 400)" opacity="0.12"></path><path d="M374.67 133.25C375.93 118.87 393.14 115.93 404.17 128.27Q418.94 144.6 434.31 162.02 449.61 180.48 464.18 199.81 477.38 219.79 488.69 240.12 497.71 260.47 504.27 280.47 508.39 299.77 510.31 318.06 510.47 335.09 509.48 350.66 508.09 364.73 507.08 377.32 507.23 388.59 509.25 398.8 513.68 408.3 520.89 417.5 530.99 426.88 543.86 436.89 559.12 447.98 576.16 460.51 594.22 474.79 612.41 490.97 629.82 509.08 645.58 529.02 658.94 550.53 669.36 573.25 676.52 596.7 680.39 620.32 681.23 643.55 679.58 665.81C677.28 680.95 659.22 688.77 646.7 676.81Q631.26 659.73 615.83 644.54 600.4 635.44 584.96 634.94 569.53 643.19 554.1 657.9 538.66 675 523.23 689.76 507.79 698.07 492.36 697.66 476.93 688.62 461.49 673.46 446.06 656.38 430.62 642.11 415.19 634.6 399.76 635.94 384.32 645.74 368.89 661.3 353.45 678.3 338.02 692.05 322.59 698.73 307.15 696.49 291.72 685.95 276.28 670.03 260.85 653.14 245.41 639.96 229.98 634.14 214.55 637.28 199.11 648.52 183.68 664.75 168.24 681.47 152.81 694.05C140.29 698.75 134.28 685.05 141.72 673.79Q151.96 656.25 161.83 636.7 171.09 615.49 179.54 593.06 187.04 569.93 193.53 546.67 199.05 523.82 203.73 501.87 207.81 481.24 211.57 462.23 215.37 445.02 219.58 429.66 224.55 416.05 230.57 403.99 237.88 393.15 246.57 383.15 256.65 373.55 267.97 363.92 280.27 353.82 293.19 342.9 306.29 330.85 319.09 317.48 331.11 302.7 341.93 286.51 351.22 269.04 358.76 250.48 364.5 231.1 368.53 211.24 371.11 191.2 372.64 171.34 373.63 151.94 374.67 133.25 374.67 133.25 374.67 133.25" stroke-dasharray="9 5" transform="rotate(6.923076923076923, 400, 400)" opacity="0.16"></path><path d="M379.77 143.48C380.54 129.7 397.22 126.8 408.37 138.57Q422.88 154.14 437.55 170.74 451.8 188.33 465.05 206.77 476.8 225.88 486.65 245.39 494.33 265.03 499.75 284.46 503.01 303.37 504.38 321.45 504.29 338.45 503.3 354.18 502.07 368.51 501.28 381.43 501.63 393.01 503.7 403.42 507.97 412.92 514.76 421.83 524.19 430.54 536.15 439.48 550.35 449.04 566.3 459.63 583.34 471.58 600.74 485.14 617.68 500.47 633.4 517.6 647.18 536.46 658.48 556.84 666.92 578.44 672.35 600.85 674.85 623.6 674.77 646.17C673.39 662.02 656.55 667.37 644.41 654.37Q629.44 638.82 614.46 627.51 599.49 623.31 584.52 627.29 569.55 638.44 554.58 653.92 539.6 669.79 524.63 681.99 509.66 687.43 494.69 684.7 479.72 674.52 464.74 659.47 449.77 643.39 434.8 630.38 419.83 623.75 404.85 625.19 389.88 634.33 374.91 648.86 359.94 665.05 344.97 678.79 329.99 686.58 315.02 686.43 300.05 678.37 285.08 664.47 270.1 648.27 255.13 633.88 240.16 624.99 225.19 623.85 210.21 630.76 195.24 643.96 180.27 660.07 165.3 675.01C153.16 683.59 147.36 673.67 154.5 660.73Q164.19 641.27 173.39 620.39 181.89 598.55 189.53 576.2 196.25 553.85 202.01 531.97 206.9 511 211.08 491.3 214.76 473.13 218.25 456.65 221.86 441.88 225.92 428.76 230.74 417.09 236.58 406.62 243.64 397 252 387.86 261.66 378.78 272.49 369.39 284.28 359.33 296.69 348.32 309.34 336.15 321.81 322.67 333.66 307.87 344.51 291.78 354.03 274.56 361.97 256.41 368.23 237.58 372.83 218.37 375.94 199.08 377.86 180 378.97 161.4 379.77 143.48 379.77 143.48 379.77 143.48" stroke-dasharray="10 4" transform="rotate(9.230769230769232, 400, 400)" opacity="0.20"></path><path d="M385.12 153.7C385.65 140.52 401.8 137.67 412.8 148.87Q426.76 163.68 440.51 179.47 453.55 196.18 465.41 213.72 475.7 231.94 484.14 250.61 490.57 269.48 494.96 288.27 497.48 306.71 498.38 324.49 498.1 341.39 497.14 357.18 496.08 371.74 495.52 384.97 496.03 396.91 498.14 407.63 502.26 417.3 508.65 426.18 517.42 434.57 528.51 442.81 541.69 451.27 556.54 460.33 572.55 470.32 589.07 481.56 605.43 494.27 620.93 508.6 634.94 524.61 646.9 542.25 656.41 561.38 663.25 581.73 667.35 603 668.89 624.77C668.6 640.5 653.28 644.56 641.53 632.3Q627.05 619.92 612.56 613.24 598.07 613.82 583.58 621.52 569.1 634.55 554.61 649.85 540.12 663.87 525.64 673.31 511.15 675.99 496.66 671.26 482.17 660.24 467.69 645.5 453.2 630.49 438.71 618.7 424.23 612.9 409.74 614.43 395.25 622.95 380.77 636.45 366.28 651.8 351.79 665.39 337.3 674.06 322.82 675.79 308.33 670.16 293.84 658.49 279.36 643.52 264.87 628.73 250.38 617.58 235.9 612.67 221.41 615.16 206.92 624.46 192.44 638.39 177.95 653.71C166.2 664.68 160.52 657.83 167.28 643.74Q176.32 623.22 184.76 601.97 192.45 580.44 199.28 559.06 205.22 538.25 210.29 518.37 214.6 499.72 218.31 482.53 221.65 466.91 224.9 452.88 228.33 440.38 232.25 429.24 236.93 419.23 242.6 410.03 249.4 401.33 257.43 392.76 266.67 383.98 277.02 374.67 288.27 364.55 300.15 353.4 312.33 341.08 324.43 327.53 336.07 312.74 346.89 296.82 356.55 279.9 364.84 262.2 371.58 243.96 376.77 225.44 380.46 206.91 382.87 188.64 384.29 170.84 385.12 153.7 385.12 153.7 385.12 153.7" stroke-dasharray="8 5" transform="rotate(11.538461538461538, 400, 400)" opacity="0.23"></path><path d="M390.53 163.92C391.04 151.33 406.65 148.53 417.27 159.19Q430.41 173.25 443.05 188.21 454.77 204.05 465.21 220.69 474.07 237.99 481.18 255.78 486.45 273.85 489.93 291.94 491.8 309.82 492.33 327.22 491.92 343.91 491.02 359.68 490.13 374.37 489.78 387.89 490.46 400.17 492.59 411.26 496.54 421.25 502.54 430.31 510.69 438.65 520.94 446.55 533.12 454.32 546.9 462.28 561.85 470.77 577.45 480.09 593.11 490.51 608.24 502.25 622.27 515.47 634.67 530.23 645.04 546.52 653.09 564.26 658.67 583.24 661.83 603.22C662.69 618.02 649.11 622.02 637.77 612Q623.8 603.88 609.83 602.01 595.85 606.8 581.88 617.22 567.91 631.06 553.93 645.35 539.96 657.05 525.99 663.67 512.01 663.8 498.04 657.41 484.07 645.85 470.09 631.61 456.12 617.7 442.15 607.11 428.17 602.08 414.2 603.69 400.23 611.59 386.25 624.11 372.28 638.57 358.31 651.88 344.33 661.22 330.36 664.59 316.39 661.26 302.41 651.96 288.44 638.66 274.47 624.2 260.49 611.66 246.52 603.72 232.55 602.06 218.57 607.05 204.6 617.62 190.63 631.51C179.3 643.19 173.65 638.41 179.94 623.87Q188.24 603.31 195.86 582.67 202.72 562.36 208.75 542.71 213.94 524.03 218.37 506.56 222.14 490.47 225.44 475.85 228.48 462.7 231.51 450.95 234.79 440.44 238.59 430.96 243.13 422.24 248.61 414 255.17 405.92 262.86 397.69 271.68 389.02 281.53 379.66 292.25 369.39 303.59 358.08 315.28 345.63 326.97 332.03 338.34 317.33 349.05 301.62 358.8 285.07 367.35 267.88 374.54 250.27 380.27 232.47 384.58 214.73 387.57 197.26 389.99 172.1 390.53 163.92" stroke-dasharray="0 5" transform="rotate(13.846153846153847, 400, 400)" opacity="0.27"></path><path d="M395.8 174.13C396.51 162.14 411.54 159.41 421.55 169.5Q433.67 182.81 445.06 196.96 455.39 211.92 464.41 227.65 471.9 244.03 477.77 260.92 482 278.14 484.68 295.48 486 312.72 486.24 329.64 485.75 346.02 484.94 361.67 484.23 376.41 484.08 390.12 484.9 402.72 487.05 414.19 490.83 424.57 496.45 433.94 504 442.47 513.45 450.34 524.66 457.79 537.39 465.1 551.28 472.55 565.91 480.43 580.79 489.01 595.4 498.54 609.26 509.23 621.88 521.23 632.87 534.63 641.91 549.46 648.8 565.67 653.47 583.13C655.49 596.38 643.75 601.25 632.86 594.51Q619.44 591.12 606.01 593.74 592.58 601.85 579.16 613.88 565.73 627.51 552.31 640.09 538.88 649.19 525.45 653.04 512.03 650.9 498.6 643.18 485.18 631.38 471.75 617.78 458.32 605.02 444.9 595.57 431.47 591.26 418.05 592.93 404.62 600.24 391.19 611.79 377.77 625.34 364.34 638.26 350.91 648.06 337.49 652.82 324.06 651.63 310.64 644.73 297.21 633.44 283.78 619.96 270.36 606.89 256.93 596.77 243.5 591.56 230.08 592.26 216.65 598.75 203.22 609.76C192.33 620.57 186.63 616.79 192.38 602.56Q199.86 582.96 206.64 563.83 212.67 545.46 217.91 528.1 222.4 511.92 226.23 497.06 229.53 483.55 232.46 471.39 235.24 460.49 238.09 450.7 241.25 441.83 244.93 433.65 249.34 425.89 254.64 418.28 260.93 410.56 268.29 402.45 276.68 393.74 286.04 384.23 296.21 373.78 307.01 362.31 318.17 349.76 329.43 336.17 340.47 321.61 351.01 306.19 360.77 290.07 369.52 273.43 377.07 256.49 383.31 239.44 388.22 222.5 391.83 205.87 395.04 181.91 395.8 174.13" stroke-dasharray="3 4" transform="rotate(16.153846153846153, 400, 400)" opacity="0.31"></path><path d="M400.74 184.34C401.79 172.94 416.24 170.28 425.46 179.84Q436.38 192.39 446.43 205.73 455.37 219.82 462.99 234.64 469.2 250.08 473.94 266.05 477.24 282.38 479.23 298.91 480.11 315.44 480.13 331.79 479.61 347.76 478.9 363.17 478.38 377.84 478.41 391.65 479.35 404.5 481.51 416.32 485.12 427.1 490.38 436.88 497.34 445.74 506.02 453.82 516.31 461.28 528.01 468.32 540.84 475.19 554.46 482.12 568.48 489.37 582.46 497.18 595.97 505.77 608.6 515.35 619.97 526.07 629.76 538.03 637.73 551.29 643.76 565.85C646.87 577.1 637.02 583.56 626.61 580.6Q613.76 581.78 600.92 588.09 588.07 598.41 575.23 610.93 562.38 623.47 549.54 633.82 536.7 640.18 523.85 641.43 511.01 637.35 498.16 628.66 485.32 616.88 472.47 604.07 459.63 592.47 446.78 584.12 433.94 580.48 421.09 582.18 408.25 588.93 395.41 599.55 382.56 612.17 369.72 624.59 356.87 634.63 344.03 640.53 331.18 641.27 318.34 636.7 305.49 627.63 292.65 615.65 279.8 602.86 266.96 591.49 254.11 583.54 241.27 580.4 228.42 582.62 215.58 589.81C205.17 598.44 199.37 594.58 204.52 581.38Q211.14 563.59 217.07 546.65 222.27 530.73 226.77 515.96 230.61 502.43 233.91 490.14 236.78 479.06 239.4 469.09 244.83 452.19 251.28 437.03 255.55 429.88 260.66 422.62 266.7 415.02 273.71 406.87 281.68 398.01 290.54 388.3 300.17 377.67 310.4 366.05 321.03 353.47 331.8 339.96 342.47 325.61 352.78 310.54 362.47 294.91 371.32 278.88 379.16 262.65 385.85 246.38 391.32 230.26 395.57 214.46 399.7 191.73 400.74 184.34" stroke-dasharray="8 5" transform="rotate(18.461538461538463, 400, 400)" opacity="0.34"></path><path d="M405.17 194.54C406.68 183.75 420.53 181.17 428.8 190.16Q438.43 201.98 447.1 214.5 454.64 227.73 460.95 241.63 465.97 256.14 469.69 271.16 472.2 286.58 473.62 302.25 474.14 318.01 474 333.71 473.49 349.16 472.9 364.21 472.56 378.7 472.77 392.49 473.82 405.47 475.96 417.56 479.41 428.72 484.31 438.92 490.72 448.22 498.67 456.66 508.06 464.37 518.76 471.48 530.54 478.17 543.14 484.62 556.24 491.06 569.47 497.69 582.49 504.72 594.92 512.38 606.43 520.82 616.72 530.22 625.53 540.7 632.7 552.33C636.78 561.43 628.78 569.76 618.86 570.5Q606.63 575.57 594.4 584.48 582.18 595.81 569.95 607.79 557.72 618.52 545.5 626.32 533.27 629.96 521.04 628.87 508.81 623.22 496.59 613.9 484.36 602.37 472.13 590.45 459.91 580.02 447.68 572.72 435.45 569.69 423.22 571.42 411 577.63 398.77 587.34 386.54 599.03 374.31 610.86 362.09 620.96 349.86 627.74 337.63 630.14 325.4 627.78 313.18 621.03 300.95 610.96 288.72 599.14 276.49 587.44 264.27 577.7 252.04 571.46 239.81 569.69 227.58 572.68C217.66 578.29 211.74 573.52 216.27 561.89Q222.01 546.51 227.1 532.15 231.52 518.89 235.32 506.77 238.58 495.78 241.4 485.84 246.28 469.04 251.22 454.19 257.97 440.68 266.69 426.76 272.47 419.1 279.13 410.79 286.68 401.72 295.04 391.8 304.12 380.99 313.78 369.29 323.85 356.73 334.12 343.37 344.37 329.31 354.37 314.67 363.92 299.59 372.79 284.23 380.82 268.73 387.87 253.27 393.84 237.99 398.7 223.04 403.81 201.53 405.17 194.54" stroke-dasharray="5 6" transform="rotate(20.76923076923077, 400, 400)" opacity="0.38"></path><path d="M408.94 204.74C410.99 194.55 424.19 192.06 431.43 200.51Q439.69 211.59 446.99 223.31 453.21 235.68 458.3 248.67 462.24 262.23 465.08 276.29 466.91 290.76 467.86 305.53 468.11 320.46 467.88 335.42 467.41 350.26 466.96 364.84 466.79 379.01 467.16 392.65 468.3 405.64 470.43 417.89 473.7 429.33 478.25 439.93 484.14 449.66 491.38 458.56 499.92 466.67 509.65 474.08 520.41 480.92 531.97 487.3 544.1 493.4 556.51 499.39 568.89 505.44 580.95 511.75 592.38 518.5 602.91 525.85 612.3 533.96 620.35 542.95C625.24 550.02 618.96 560.13 609.56 564Q597.99 571.89 586.41 582.15 574.83 593.34 563.25 603.9 551.68 612.32 540.1 617.44 528.52 618.53 516.94 615.44 505.37 608.6 493.79 598.97 482.21 587.91 470.64 576.98 459.06 567.7 447.48 561.39 435.91 558.93 424.33 560.67 412.75 566.36 401.18 575.2 389.6 585.95 378.02 597.11 366.44 607.09 354.87 614.5 343.29 618.29 331.71 617.94 320.14 613.48 308.56 605.56 296.98 595.28 285.41 584.08 273.83 573.55 262.25 565.16 250.68 560.09 239.1 559.05C229.7 561.3 223.65 555.1 227.53 545.35Q232.41 532.65 236.69 520.98 240.39 510.33 243.57 500.66 248.62 484.26 253.08 469.85 257.97 457.15 264 444.46 268.01 437.69 272.73 430.45 278.24 422.6 284.56 414.06 291.67 404.76 299.54 394.65 308.07 383.72 317.15 372.01 326.64 359.56 336.37 346.44 346.16 332.75 355.8 318.61 365.12 304.14 373.93 289.48 382.05 274.77 389.37 260.14 395.76 245.71 401.16 231.61 407.24 211.33 408.94 204.74" stroke-dasharray="9 6" transform="rotate(23.076923076923077, 400, 400)" opacity="0.42"></path><path d="M411.92 214.93C414.53 205.34 427.03 202.94 433.2 210.85Q440.1 221.2 446.08 232.13 451.06 243.64 455.05 255.72 458.05 268.34 460.14 281.44 461.41 294.95 461.99 308.78 462.05 322.82 461.78 336.97 461.39 351.1 461.08 365.09 461.08 378.82 461.59 392.17 462.8 405.03 464.89 417.3 467.99 428.91 472.2 439.79 477.59 449.92 484.16 459.27 491.88 467.85 500.68 475.72 510.43 482.92 520.97 489.55 532.11 495.7 543.61 501.52 555.25 507.13 566.76 512.7 577.9 518.36 588.43 524.29 598.13 530.63 606.8 537.52C612.32 542.9 607.57 554.37 598.74 560.46Q587.84 569.86 576.94 580.23 566.04 590.29 555.14 598.77 544.25 604.63 533.35 607.12 522.45 605.94 511.55 601.24 500.66 593.6 489.76 583.98 478.86 573.57 467.96 563.67 457.07 555.52 446.17 550.14 435.27 548.19 424.37 549.92 413.48 555.11 402.58 563.12 391.68 572.94 380.79 583.36 369.89 593.07 358.99 600.86 348.09 605.76 337.2 607.16 326.3 604.88 315.4 599.21 304.5 590.86 293.61 580.86 282.71 570.47 271.81 560.98 260.92 553.57 250.02 549.17C241.18 548.2 235 540.4 238.27 532.59Q242.33 522.54 245.86 513.37 251.37 497.73 255.91 483.97 259.91 472.04 264.34 460.33 270.68 447.57 278.78 433.45 284.01 425.36 289.98 416.57 296.67 407.05 304.03 396.81 312.02 385.84 320.52 374.21 329.42 361.95 338.59 349.16 347.86 335.93 357.09 322.36 366.11 308.56 374.75 294.65 382.87 280.75 390.34 266.97 397.04 253.41 402.9 240.16 409.89 221.12 411.92 214.93" stroke-dasharray="7 11" transform="rotate(25.384615384615383, 400, 400)" opacity="0.45"></path><path d="M414 225.11C417.15 216.14 428.94 213.84 434.02 221.2Q439.62 230.82 444.36 240.97 448.23 251.63 451.24 262.82 453.45 274.5 454.91 286.63 455.73 299.16 456.04 312.02 455.99 325.13 455.72 338.4 455.42 351.74 455.26 365.04 455.41 378.2 456.04 391.11 457.31 403.69 459.36 415.82 462.28 427.45 466.17 438.49 471.08 448.89 477.01 458.62 483.96 467.66 491.87 476.01 500.64 483.7 510.17 490.77 520.29 497.27 530.85 503.28 541.65 508.91 552.48 514.26 563.15 519.44 573.46 524.59 583.19 529.83 592.19 535.3C598.11 539.45 594.7 551.64 586.43 558.85Q576.24 568.45 566.05 577.84 555.86 586 545.67 592.02 535.47 595.25 525.28 595.34 515.09 592.26 504.9 586.37 494.7 578.31 484.51 568.96 474.32 559.34 464.13 550.53 453.94 543.47 443.74 538.94 433.55 537.45 423.36 539.16 413.17 543.87 402.97 551.08 392.78 559.99 382.59 569.62 372.4 578.91 362.2 586.85 352.01 592.57 341.82 595.43 331.63 595.13 321.43 591.69 311.24 585.5 301.05 577.23 290.86 567.79 280.66 558.21 270.47 549.56 260.28 542.77C252.01 539.16 245.76 529.92 248.43 523.9Q254.4 509.37 259.23 496.52 262.95 485.39 266.58 474.57 271.11 463.04 276.79 450.45 280.51 443.31 284.83 435.58 289.79 427.23 295.4 418.22 301.66 408.56 308.53 398.26 315.96 387.35 323.88 375.89 332.18 363.94 340.76 351.57 349.49 338.88 358.25 325.94 366.89 312.87 375.29 299.75 383.3 286.69 390.81 273.78 397.71 261.09 403.91 248.71 411.68 230.91 414 225.11" stroke-dasharray="5 11" transform="rotate(27.692307692307693, 400, 400)" opacity="0.49"></path><path d="M415.14 235.3C418.75 226.94 429.79 224.74 433.84 231.57Q438.22 240.48 441.85 249.84 444.74 259.67 446.93 269.97 448.47 280.71 449.43 291.87 449.92 303.42 450.04 315.29 449.93 327.43 449.7 339.78 449.51 352.24 449.49 364.76 449.79 377.23 450.53 389.57 451.84 401.7 453.83 413.53 456.57 425 460.15 436.03 464.59 446.56 469.92 456.54 476.14 465.93 483.19 474.73 491.03 482.91 499.56 490.48 508.68 497.48 518.26 503.94 528.15 509.9 538.19 515.45 548.23 520.65 558.1 525.6 567.64 530.39 576.68 535.13C582.81 538.57 580.5 550.74 572.82 557.96Q563.35 566.59 553.88 574.16 544.41 579.95 534.94 583.39 525.47 584.15 516 582.18 506.53 577.64 497.06 570.99 487.6 562.85 478.13 554 468.66 545.3 459.19 537.57 449.72 531.55 440.25 527.82 430.78 526.74 421.31 528.41 411.84 532.68 402.37 539.12 392.9 547.13 383.44 555.94 373.97 564.7 364.5 572.58 355.03 578.82 345.56 582.83 336.09 584.22 326.62 582.86 317.15 578.88 307.68 572.65 298.22 564.79 288.75 556.03 279.28 547.22 269.81 539.2C262.12 533.8 255.89 523.55 258.02 518.99Q265.57 499.97 269.94 487.31 273.41 476.79 277.51 465.41 283.46 451.85 290.89 436.7 295.57 428.12 300.82 418.97 306.65 409.26 313.03 399.01 319.91 388.27 327.23 377.1 334.93 365.55 342.91 353.7 351.07 341.62 359.31 329.39 367.51 317.09 375.57 304.8 383.36 292.61 390.8 280.58 397.77 268.77 404.19 257.26 412.57 240.7 415.14 235.3" stroke-dasharray="3 4" transform="rotate(30, 400, 400)" opacity="0.53"></path><path d="M415.29 245.48C419.29 237.72 429.54 235.64 432.65 241.94Q435.93 250.14 438.59 258.74 440.66 267.75 442.16 277.16 443.18 286.98 443.77 297.18 444.02 307.74 444.03 318.61 443.9 329.76 443.74 341.13 443.67 352.67 443.79 364.31 444.22 375.98 445.05 387.63 446.38 399.17 448.29 410.54 450.86 421.67 454.13 432.49 458.14 442.96 462.9 453.01 468.42 462.6 474.67 471.7 481.61 480.29 489.18 488.34 497.31 495.85 505.89 502.84 514.83 509.32 524 515.33 533.28 520.9 542.54 526.09 551.66 530.95 560.49 535.57C566.6 538.78 565.15 550.21 558.06 556.49Q540.6 568.52 523.13 572.73 505.67 567.76 488.2 555.22 470.74 539.16 453.27 524.79 435.81 516.76 418.34 517.66 400.87 527.2 383.41 542.3 365.94 558.07 348.48 569.4 331.01 572.63 313.55 566.71 296.08 553.56 278.61 537.43C271.53 531.24 265.38 520.58 267.04 517.05Q273.1 500.84 276.85 489.08 280.15 478.34 284.14 466.48 289.88 452.33 296.95 436.69 301.35 427.99 306.24 418.8 311.65 409.15 317.53 399.08 323.86 388.63 330.6 377.86 337.68 366.82 345.04 355.57 352.6 344.18 360.28 332.71 367.98 321.24 375.62 309.81 383.11 298.5 390.35 287.36 397.27 276.45 403.77 265.81 412.55 250.48 415.29 245.48" stroke-dasharray="6 3" transform="rotate(32.30769230769231, 400, 400)" opacity="0.56"></path><path d="M414.5 255.67C418.75 248.51 428.18 246.55 430.44 252.33Q434.65 267.67 437.02 284.42 437.96 302.58 438.02 322.02 437.86 342.53 438.17 363.78 439.6 385.4 442.77 406.96 448.13 428 455.95 448.12 466.31 466.92 479.05 484.12 493.8 499.54 510 513.11 526.94 524.91 543.84 535.14C549.76 538.5 548.9 548.61 542.42 553.27Q526.44 560.44 510.45 560.08 494.47 552.29 478.49 539.23 462.51 524.52 446.52 512.22 430.54 505.75 414.56 506.9 398.58 515.34 382.59 528.75 366.61 543.4 350.63 555.25 334.65 561 318.66 559.07 302.68 549.99 286.7 536.27C280.22 530.24 274.26 519.84 275.52 516.86Q278.53 508.52 281.11 499.69 283.71 489.91 286.79 478.8 290.8 466.11 296.12 451.68 303.02 435.51 311.66 417.72 322.03 398.51 333.97 378.23 347.17 357.23 361.19 335.95 375.5 314.79 389.53 294.15 402.7 274.35 414.5 255.67 414.5 255.67 414.5 255.67" stroke-dasharray="2 0" transform="rotate(34.61538461538461, 400, 400)" opacity="0.60"></path><path d="M412.79 265.84C417.15 259.3 425.76 257.46 427.33 262.72Q430.12 276.63 431.58 291.74 432.07 308.06 432.07 325.53 432.07 344 432.61 363.25 434.19 383 437.25 402.94 442.13 422.73 449.05 442.02 458.09 460.48 469.15 477.81 482 493.79 496.26 508.27 511.43 521.17 526.95 532.52C532.5 536.25 532.02 544.68 526.15 547.39Q511.65 549.71 497.15 545.6 482.65 536.02 468.15 523.19 453.65 510.13 439.15 499.87 424.65 494.82 410.15 496.15 395.65 503.56 381.14 515.31 366.64 528.66 352.14 540.49 337.64 548.04 323.14 549.54 308.64 544.64 294.14 534.5C288.26 529.4 282.59 519.84 283.55 517.02Q285.93 508.74 288.15 499.54 290.59 489.14 293.6 477.36 297.52 464.1 302.62 449.34 309.11 433.18 317.08 415.78 326.54 397.37 337.35 378.24 349.3 358.71 362.06 339.11 375.24 319.75 388.38 300.93 401.05 282.9 412.79 265.84 412.79 265.84 412.79 265.84" stroke-dasharray="7 6" transform="rotate(36.92307692307693, 400, 400)" opacity="0.63"></path><path d="M410.27 276.02C414.61 270.08 422.39 268.37 423.39 273.12Q425.11 285.62 425.93 299.12 426.16 313.66 426.18 329.18 426.38 345.61 427.13 362.8 428.81 380.56 431.73 398.68 436.14 416.9 442.22 434.96 450.02 452.59 459.5 469.55 470.53 485.6 482.87 500.57 496.17 514.3 510.06 526.73C515.11 530.88 514.83 537.48 509.54 538.24Q496.51 536.36 483.48 529.57 470.45 519.2 457.41 507.25 444.38 496.03 431.35 487.72 418.32 483.93 405.28 485.39 392.25 491.83 379.22 501.98 366.19 513.89 353.15 525.25 340.12 533.86 327.09 538.05 314.05 537 301.02 530.93C295.73 527.27 290.46 519.03 291.19 516.09Q293.14 507.27 295.15 497.38 297.51 486.29 300.47 473.94 304.28 460.34 309.14 445.58 315.19 429.77 322.5 413.08 331.05 395.75 340.75 377.99 351.46 360.07 362.93 342.23 374.88 324.71 386.98 307.73 398.89 291.45 410.27 276.02 410.27 276.02 410.27 276.02" stroke-dasharray="7 7" transform="rotate(39.23076923076923, 400, 400)" opacity="0.67"></path><path d="M407.06 286.2C411.23 280.87 418.18 279.3 418.76 283.54Q419.72 294.65 420.15 306.59 420.28 319.38 420.4 333 420.79 347.41 421.72 362.52 423.45 378.21 426.21 394.34 430.16 410.74 435.44 427.22 442.09 443.58 450.11 459.64 459.43 475.2 469.89 490.08 481.29 504.14 493.37 517.24C497.83 521.7 497.59 526.6 492.89 525.69Q481.3 520.67 469.72 512.38 458.13 502.14 446.54 491.56 434.96 482.29 423.37 475.8 411.78 473.11 400.19 474.65 388.61 480.16 377.02 488.79 365.43 499.18 353.84 509.68 342.26 518.66 330.67 524.68 319.08 526.82 307.49 524.72C302.79 522.72 298 516.02 298.59 512.82Q300.28 503.26 302.19 492.68 304.5 481.07 307.42 468.45 311.11 454.89 315.71 440.49 321.29 425.39 327.91 409.75 335.56 393.74 344.18 377.54 353.64 361.36 363.81 345.35 374.47 329.7 385.4 314.55 396.35 300.02 407.06 286.2 407.06 286.2 407.06 286.2" stroke-dasharray="9 8" transform="rotate(41.53846153846154, 400, 400)" opacity="0.71"></path><path d="M403.32 296.37C407.2 291.64 413.3 290.22 413.62 293.97Q414.11 303.72 414.34 314.13 414.48 325.23 414.74 337 415.32 349.43 416.39 362.48 418.13 376.06 420.69 390.1 424.19 404.49 428.71 419.11 434.31 433.83 440.98 448.51 448.69 463.01 457.37 477.19 466.89 490.91 477.1 504.06C480.92 508.65 480.61 512.07 476.49 510Q466.31 503.14 456.14 494.49 445.96 485.14 435.79 476.25 425.62 468.93 415.44 464.09 405.27 462.34 395.09 463.89 384.92 468.55 374.74 475.75 364.57 484.57 354.39 493.93 344.22 502.65 334.04 509.65 323.87 514.05 313.69 515.31C309.57 514.87 305.33 509.77 305.86 506.32Q307.44 496.16 309.31 485.18 311.61 473.43 314.48 460.96 318.02 447.86 322.31 434.24 327.4 420.21 333.33 405.9 340.09 391.44 347.63 376.97 355.88 362.61 364.73 348.49 374.07 334.72 383.73 321.39 398.43 302.48 403.32 296.37" stroke-dasharray="3 11" transform="rotate(43.84615384615385, 400, 400)" opacity="0.74"></path><path d="M399.22 306.56C402.7 302.42 407.98 301.16 408.13 304.41Q408.39 312.83 408.58 321.77 408.82 331.22 409.24 341.22 409.97 351.73 411.14 362.75 412.84 374.25 415.17 386.16 418.22 398.44 422.04 411 426.67 423.79 432.11 436.7 438.36 449.64 445.37 462.52 453.09 475.25 461.44 487.73C464.58 492.14 464.15 494.49 460.58 491.83Q451.78 484.43 442.99 476.4 434.19 468.49 425.39 461.46 416.6 455.99 407.8 452.61 399.01 451.63 390.21 453.14 381.41 457.01 372.61 462.87 363.82 470.15 355.02 478.15 346.22 486.11 337.43 493.28 328.63 498.95 319.83 502.59C316.26 503.41 312.63 499.75 313.13 496.17Q314.69 485.83 316.58 474.93 318.87 463.54 321.66 451.71 325 439.53 328.94 427.08 333.52 414.45 338.75 401.73 344.62 389 351.1 376.36 358.16 363.9 365.72 351.68 373.71 339.79 382.03 328.27 394.9 311.87 399.22 306.56" stroke-dasharray="9 3" transform="rotate(46.15384615384615, 400, 400)" opacity="0.78"></path><path d="M394.97 316.73C397.95 313.21 402.42 312.1 402.52 314.86Q402.97 329.48 403.92 345.65 405.97 363.41 409.67 382.67 415.42 403.23 423.49 424.77 433.91 446.9 446.52 469.18C449 473.16 448.43 474.8 445.41 472.12Q430.5 458.59 415.58 447.28 400.66 441.33 385.75 442.39 370.83 450.15 355.92 462.48 341 475.96 326.08 486.85C323.06 488.45 320.07 485.97 320.58 482.47Q324.07 462.3 328.97 441.09 335.61 419.3 344.16 397.39 354.61 375.8 366.81 354.95 380.42 335.18 394.97 316.73 394.97 316.73 394.97 316.73" stroke-dasharray="10 3" transform="rotate(48.46153846153846, 400, 400)" opacity="0.82"></path><path d="M390.75 326.91C393.19 323.98 396.87 323.04 396.97 325.32Q397.6 337.29 398.79 350.34 400.88 364.51 404.16 379.79 408.85 396.1 415.12 413.31 423.01 431.23 432.48 449.65C434.34 452.99 433.65 454.25 431.15 451.97Q418.84 441.53 406.53 433.8 394.22 430.27 381.91 431.63 369.6 437.62 357.29 447.07 344.98 458.17 332.67 468.74C330.17 470.64 327.82 469 328.34 465.84Q331.83 447.88 336.44 429.59 342.33 411.23 349.57 393.08 358.16 375.37 368.02 358.33 378.96 342.14 390.75 326.91 390.75 326.91 390.75 326.91" stroke-dasharray="5 5" transform="rotate(50.76923076923077, 400, 400)" opacity="0.85"></path><path d="M386.76 337.1C388.64 334.76 391.54 334 391.68 335.81Q392.53 345.2 393.87 355.29 395.87 366.1 398.65 377.65 402.33 389.91 406.99 402.85 412.67 416.4 419.38 430.48C420.69 433.07 419.94 434.15 417.97 432.54Q408.19 425.64 398.42 421.07 388.64 419.42 378.87 420.88 369.1 425.28 359.32 432.07 349.54 440.4 339.77 449.22C337.79 450.97 336.05 449.89 336.58 447.23Q339.94 432.47 344.09 417.75 349.09 403.21 354.99 388.97 361.76 375.16 369.36 361.86 382.25 343.13 386.76 337.1" stroke-dasharray="5 3" transform="rotate(53.07692307692307, 400, 400)" opacity="0.89"></path><path d="M383.19 347.28C384.52 345.54 386.67 344.96 386.85 346.3Q389.19 360.51 393.14 376.33 399.09 393.83 407.26 412.93C408.11 414.73 407.39 415.71 405.91 414.8Q391.33 409.12 376.75 410.12 362.17 417.55 347.58 429.34C346.1 430.66 344.93 429.89 345.42 427.9Q351.92 406.14 360.4 385.25 370.88 365.55 383.19 347.28 383.19 347.28 383.19 347.28" stroke-dasharray="3 5" transform="rotate(55.38461538461539, 400, 400)" opacity="0.93"></path><path d="M380.22 357.48C381.04 356.31 382.46 355.92 382.64 356.81Q384.75 366.01 387.64 375.92 391.4 386.57 396.13 397.98C396.6 399.05 396.02 399.89 395.04 399.56Q385.34 397.96 375.65 399.38 365.95 403.65 356.25 410.23C355.27 411 354.58 410.42 354.98 409.15Q359.94 395.33 365.81 382.07 376.4 363.46 380.22 357.48" stroke-dasharray="1 1" transform="rotate(57.69230769230769, 400, 400)" opacity="0.96"></path></g></svg>