<svg xmlns="http://www.w3.org/2000/svg" version="1.1" xmlns:xlink="http://www.w3.org/1999/xlink" xmlns:svgjs="http://svgjs.dev/svgjs" viewBox="0 0 800 800"><defs><linearGradient x1="50%" y1="0%" x2="50%" y2="100%" id="cccoil-grad"><stop stop-color="#19E5B0" stop-opacity="1" offset="0%"></stop><stop stop-color="#BD99FF" stop-opacity="1" offset="100%"></stop></linearGradient></defs><g stroke="url(#cccoil-grad)" fill="none" stroke-linecap="round"><circle r="546" cx="400" cy="400" stroke-width="7" stroke-dasharray="2916 3431" transform="rotate(360, 400, 400)" stroke-dashoffset="1000" opacity="0.05"></circle><circle r="532" cx="400" cy="400" stroke-width="7" stroke-dasharray="2766 3343" transform="rotate(351, 400, 400)" stroke-dashoffset="1000" opacity="0.07"></circle><circle r="518" cx="400" cy="400" stroke-width="7" stroke-dasharray="2621 3255" transform="rotate(341, 400, 400)" stroke-dashoffset="1000" opacity="0.10"></circle><circle r="504" cx="400" cy="400" stroke-width="7" stroke-dasharray="2479 3167" transform="rotate(332, 400, 400)" stroke-dashoffset="1000" opacity="0.13"></circle><circle r="490" cx="400" cy="400" stroke-width="7" stroke-dasharray="2341 3079" transform="rotate(322, 400, 400)" stroke-dashoffset="1000" opacity="0.15"></circle><circle r="476" cx="400" cy="400" stroke-width="7" stroke-dasharray="2208 2991" transform="rotate(313, 400, 400)" stroke-dashoffset="1000" opacity="0.17"></circle><circle r="462" cx="400" cy="400" stroke-width="7" stroke-dasharray="2078 2903" transform="rotate(303, 400, 400)" stroke-dashoffset="1000" opacity="0.20"></circle><circle r="448" cx="400" cy="400" stroke-width="7" stroke-dasharray="1952 2815" transform="rotate(294, 400, 400)" stroke-dashoffset="1000" opacity="0.22"></circle><circle r="434" cx="400" cy="400" stroke-width="7" stroke-dasharray="1830 2727" transform="rotate(284, 400, 400)" stroke-dashoffset="1000" opacity="0.25"></circle><circle r="420" cx="400" cy="400" stroke-width="7" stroke-dasharray="1712 2639" transform="rotate(275, 400, 400)" stroke-dashoffset="1000" opacity="0.27"></circle><circle r="406" cx="400" cy="400" stroke-width="7" stroke-dasharray="1598 2551" transform="rotate(265, 400, 400)" stroke-dashoffset="1000" opacity="0.30"></circle><circle r="392" cx="400" cy="400" stroke-width="7" stroke-dasharray="1488 2463" transform="rotate(256, 400, 400)" stroke-dashoffset="1000" opacity="0.33"></circle><circle r="378" cx="400" cy="400" stroke-width="7" stroke-dasharray="1381 2375" transform="rotate(246, 400, 400)" stroke-dashoffset="1000" opacity="0.35"></circle><circle r="364" cx="400" cy="400" stroke-width="7" stroke-dasharray="1279 2287" transform="rotate(237, 400, 400)" stroke-dashoffset="1000" opacity="0.38"></circle><circle r="350" cx="400" cy="400" stroke-width="7" stroke-dasharray="1181 2199" transform="rotate(227, 400, 400)" stroke-dashoffset="1000" opacity="0.40"></circle><circle r="336" cx="400" cy="400" stroke-width="7" stroke-dasharray="1086 2111" transform="rotate(218, 400, 400)" stroke-dashoffset="1000" opacity="0.42"></circle><circle r="322" cx="400" cy="400" stroke-width="7" stroke-dasharray="996 2023" transform="rotate(208, 400, 400)" stroke-dashoffset="1000" opacity="0.45"></circle><circle r="308" cx="400" cy="400" stroke-width="7" stroke-dasharray="909 1935" transform="rotate(199, 400, 400)" stroke-dashoffset="1000" opacity="0.47"></circle><circle r="294" cx="400" cy="400" stroke-width="7" stroke-dasharray="826 1847" transform="rotate(189, 400, 400)" stroke-dashoffset="1000" opacity="0.50"></circle><circle r="280" cx="400" cy="400" stroke-width="7" stroke-dasharray="748 1759" transform="rotate(180, 400, 400)" stroke-dashoffset="1000" opacity="0.53"></circle><circle r="266" cx="400" cy="400" stroke-width="7" stroke-dasharray="673 1671" transform="rotate(171, 400, 400)" stroke-dashoffset="1000" opacity="0.55"></circle><circle r="252" cx="400" cy="400" stroke-width="7" stroke-dasharray="602 1583" transform="rotate(161, 400, 400)" stroke-dashoffset="1000" opacity="0.58"></circle><circle r="238" cx="400" cy="400" stroke-width="7" stroke-dasharray="535 1495" transform="rotate(152, 400, 400)" stroke-dashoffset="1000" opacity="0.60"></circle><circle r="224" cx="400" cy="400" stroke-width="7" stroke-dasharray="472 1407" transform="rotate(142, 400, 400)" stroke-dashoffset="1000" opacity="0.63"></circle><circle r="210" cx="400" cy="400" stroke-width="7" stroke-dasharray="413 1319" transform="rotate(133, 400, 400)" stroke-dashoffset="1000" opacity="0.65"></circle><circle r="196" cx="400" cy="400" stroke-width="7" stroke-dasharray="358 1232" transform="rotate(123, 400, 400)" stroke-dashoffset="1000" opacity="0.68"></circle><circle r="182" cx="400" cy="400" stroke-width="7" stroke-dasharray="307 1144" transform="rotate(114, 400, 400)" stroke-dashoffset="1000" opacity="0.70"></circle><circle r="168" cx="400" cy="400" stroke-width="7" stroke-dasharray="260 1056" transform="rotate(104, 400, 400)" stroke-dashoffset="1000" opacity="0.72"></circle><circle r="154" cx="400" cy="400" stroke-width="7" stroke-dasharray="216 968" transform="rotate(95, 400, 400)" stroke-dashoffset="1000" opacity="0.75"></circle><circle r="140" cx="400" cy="400" stroke-width="7" stroke-dasharray="177 880" transform="rotate(85, 400, 400)" stroke-dashoffset="1000" opacity="0.78"></circle><circle r="126" cx="400" cy="400" stroke-width="7" stroke-dasharray="142 792" transform="rotate(76, 400, 400)" stroke-dashoffset="1000" opacity="0.80"></circle><circle r="112" cx="400" cy="400" stroke-width="7" stroke-dasharray="110 704" transform="rotate(66, 400, 400)" stroke-dashoffset="1000" opacity="0.82"></circle><circle r="98" cx="400" cy="400" stroke-width="7" stroke-dasharray="83 616" transform="rotate(57, 400, 400)" stroke-dashoffset="1000" opacity="0.85"></circle><circle r="84" cx="400" cy="400" stroke-width="7" stroke-dasharray="59 528" transform="rotate(47, 400, 400)" stroke-dashoffset="1000" opacity="0.88"></circle><circle r="70" cx="400" cy="400" stroke-width="7" stroke-dasharray="39 440" transform="rotate(38, 400, 400)" stroke-dashoffset="1000" opacity="0.90"></circle><circle r="56" cx="400" cy="400" stroke-width="7" stroke-dasharray="24 352" transform="rotate(28, 400, 400)" stroke-dashoffset="1000" opacity="0.92"></circle><circle r="42" cx="400" cy="400" stroke-width="7" stroke-dasharray="12 264" transform="rotate(19, 400, 400)" stroke-dashoffset="1000" opacity="0.95"></circle><circle r="28" cx="400" cy="400" stroke-width="7" stroke-dasharray="4 176" transform="rotate(9, 400, 400)" stroke-dashoffset="1000" opacity="0.97"></circle><circle r="14" cx="400" cy="400" stroke-width="7" stroke-dasharray="0 88" stroke-dashoffset="1000" opacity="1.00"></circle></g></svg>