<svg xmlns="http://www.w3.org/2000/svg" version="1.1" xmlns:xlink="http://www.w3.org/1999/xlink" xmlns:svgjs="http://svgjs.dev/svgjs" viewBox="0 0 1422 800"><defs><linearGradient x1="50%" y1="0%" x2="50%" y2="100%" id="oooscillate-grad"><stop stop-color="#19E5B0" stop-opacity="1" offset="0%"></stop><stop stop-color="#BD99FF" stop-opacity="1" offset="100%"></stop></linearGradient></defs><g stroke-width="3" stroke="url(#oooscillate-grad)" fill="none" stroke-linecap="round"><path d="M 0 3105 Q 355.5 210 711 400 Q 1066.5 590 1422 3105" stroke-dasharray="90 80" opacity="0.16"></path><path d="M 0 3036 Q 355.5 210 711 400 Q 1066.5 590 1422 3036" stroke-dasharray="56 55" opacity="0.76"></path><path d="M 0 2967 Q 355.5 210 711 400 Q 1066.5 590 1422 2967" stroke-dasharray="26 75" opacity="0.37"></path><path d="M 0 2898 Q 355.5 210 711 400 Q 1066.5 590 1422 2898" stroke-dasharray="7 21" opacity="0.71"></path><path d="M 0 2829 Q 355.5 210 711 400 Q 1066.5 590 1422 2829" stroke-dasharray="77 92" opacity="0.36"></path><path d="M 0 2760 Q 355.5 210 711 400 Q 1066.5 590 1422 2760" stroke-dasharray="97 41" opacity="0.60"></path><path d="M 0 2691 Q 355.5 210 711 400 Q 1066.5 590 1422 2691" stroke-dasharray="18 88" opacity="0.49"></path><path d="M 0 2622 Q 355.5 210 711 400 Q 1066.5 590 1422 2622" stroke-dasharray="54 18" opacity="0.47"></path><path d="M 0 2553 Q 355.5 210 711 400 Q 1066.5 590 1422 2553" stroke-dasharray="79 81" opacity="0.75"></path><path d="M 0 2484 Q 355.5 210 711 400 Q 1066.5 590 1422 2484" stroke-dasharray="32 13" opacity="0.27"></path><path d="M 0 2415 Q 355.5 210 711 400 Q 1066.5 590 1422 2415" stroke-dasharray="73 89" opacity="0.36"></path><path d="M 0 2346 Q 355.5 210 711 400 Q 1066.5 590 1422 2346" stroke-dasharray="102 18" opacity="0.89"></path><path d="M 0 2277 Q 355.5 210 711 400 Q 1066.5 590 1422 2277" stroke-dasharray="39 6" opacity="0.35"></path><path d="M 0 2208 Q 355.5 210 711 400 Q 1066.5 590 1422 2208" stroke-dasharray="54 72" opacity="0.88"></path><path d="M 0 2139 Q 355.5 210 711 400 Q 1066.5 590 1422 2139" stroke-dasharray="49 16" opacity="0.69"></path><path d="M 0 2070 Q 355.5 210 711 400 Q 1066.5 590 1422 2070" stroke-dasharray="97 94" opacity="0.63"></path><path d="M 0 2001 Q 355.5 210 711 400 Q 1066.5 590 1422 2001" stroke-dasharray="72 96" opacity="0.57"></path><path d="M 0 1932 Q 355.5 210 711 400 Q 1066.5 590 1422 1932" stroke-dasharray="86 75" opacity="0.66"></path><path d="M 0 1863 Q 355.5 210 711 400 Q 1066.5 590 1422 1863" stroke-dasharray="80 27" opacity="0.66"></path><path d="M 0 1794 Q 355.5 210 711 400 Q 1066.5 590 1422 1794" stroke-dasharray="59 27" opacity="0.66"></path><path d="M 0 1725 Q 355.5 210 711 400 Q 1066.5 590 1422 1725" stroke-dasharray="53 87" opacity="0.18"></path><path d="M 0 1656 Q 355.5 210 711 400 Q 1066.5 590 1422 1656" stroke-dasharray="42 13" opacity="0.95"></path><path d="M 0 1587 Q 355.5 210 711 400 Q 1066.5 590 1422 1587" stroke-dasharray="31 73" opacity="0.52"></path><path d="M 0 1518 Q 355.5 210 711 400 Q 1066.5 590 1422 1518" stroke-dasharray="2 57" opacity="0.91"></path><path d="M 0 1449 Q 355.5 210 711 400 Q 1066.5 590 1422 1449" stroke-dasharray="54 29" opacity="0.32"></path><path d="M 0 1380 Q 355.5 210 711 400 Q 1066.5 590 1422 1380" stroke-dasharray="14 16" opacity="0.47"></path><path d="M 0 1311 Q 355.5 210 711 400 Q 1066.5 590 1422 1311" stroke-dasharray="88 88" opacity="0.91"></path><path d="M 0 1242 Q 355.5 210 711 400 Q 1066.5 590 1422 1242" stroke-dasharray="46 23" opacity="0.88"></path><path d="M 0 1173 Q 355.5 210 711 400 Q 1066.5 590 1422 1173" stroke-dasharray="90 48" opacity="0.48"></path><path d="M 0 1104 Q 355.5 210 711 400 Q 1066.5 590 1422 1104" stroke-dasharray="104 80" opacity="0.07"></path><path d="M 0 1035 Q 355.5 210 711 400 Q 1066.5 590 1422 1035" stroke-dasharray="65 19" opacity="0.92"></path><path d="M 0 966 Q 355.5 210 711 400 Q 1066.5 590 1422 966" stroke-dasharray="32 32" opacity="0.83"></path><path d="M 0 897 Q 355.5 210 711 400 Q 1066.5 590 1422 897" stroke-dasharray="26 5" opacity="0.73"></path><path d="M 0 828 Q 355.5 210 711 400 Q 1066.5 590 1422 828" stroke-dasharray="85 96" opacity="0.18"></path><path d="M 0 759 Q 355.5 210 711 400 Q 1066.5 590 1422 759" stroke-dasharray="67 2" opacity="0.21"></path><path d="M 0 690 Q 355.5 210 711 400 Q 1066.5 590 1422 690" stroke-dasharray="95 42" opacity="0.86"></path><path d="M 0 621 Q 355.5 210 711 400 Q 1066.5 590 1422 621" stroke-dasharray="40 94" opacity="0.22"></path><path d="M 0 552 Q 355.5 210 711 400 Q 1066.5 590 1422 552" stroke-dasharray="40 94" opacity="0.49"></path><path d="M 0 483 Q 355.5 210 711 400 Q 1066.5 590 1422 483" stroke-dasharray="66 39" opacity="0.58"></path><path d="M 0 414 Q 355.5 210 711 400 Q 1066.5 590 1422 414" stroke-dasharray="21 88" opacity="0.99"></path><path d="M 0 345 Q 355.5 210 711 400 Q 1066.5 590 1422 345" stroke-dasharray="57 20" opacity="0.15"></path><path d="M 0 276 Q 355.5 210 711 400 Q 1066.5 590 1422 276" stroke-dasharray="14 79" opacity="0.66"></path><path d="M 0 207 Q 355.5 210 711 400 Q 1066.5 590 1422 207" stroke-dasharray="14 99" opacity="0.45"></path><path d="M 0 138 Q 355.5 210 711 400 Q 1066.5 590 1422 138" stroke-dasharray="89 63" opacity="0.29"></path></g></svg>