<svg id="visual" viewBox="0 0 900 600" width="900" height="600" xmlns="http://www.w3.org/2000/svg" xmlns:xlink="http://www.w3.org/1999/xlink" version="1.1"><path d="M0 444L12.5 442.8C25 441.7 50 439.3 75 448.5C100 457.7 125 478.3 150 482C175 485.7 200 472.3 225 476.2C250 480 275 501 300 514.5C325 528 350 534 375 523.5C400 513 425 486 450 469.8C475 453.7 500 448.3 525 451C550 453.7 575 464.3 600 473.2C625 482 650 489 675 481.7C700 474.3 725 452.7 750 452.8C775 453 800 475 825 481C850 487 875 477 887.5 472L900 467L900 601L887.5 601C875 601 850 601 825 601C800 601 775 601 750 601C725 601 700 601 675 601C650 601 625 601 600 601C575 601 550 601 525 601C500 601 475 601 450 601C425 601 400 601 375 601C350 601 325 601 300 601C275 601 250 601 225 601C200 601 175 601 150 601C125 601 100 601 75 601C50 601 25 601 12.5 601L0 601Z" fill="#19e5b0"></path><path d="M0 582L12.5 568C25 554 50 526 75 516.7C100 507.3 125 516.7 150 531.7C175 546.7 200 567.3 225 569.7C250 572 275 556 300 548C325 540 350 540 375 538C400 536 425 532 450 539.3C475 546.7 500 565.3 525 558.7C550 552 575 520 600 509C625 498 650 508 675 522.5C700 537 725 556 750 560.2C775 564.3 800 553.7 825 546.7C850 539.7 875 536.3 887.5 534.7L900 533L900 601L887.5 601C875 601 850 601 825 601C800 601 775 601 750 601C725 601 700 601 675 601C650 601 625 601 600 601C575 601 550 601 525 601C500 601 475 601 450 601C425 601 400 601 375 601C350 601 325 601 300 601C275 601 250 601 225 601C200 601 175 601 150 601C125 601 100 601 75 601C50 601 25 601 12.5 601L0 601Z" fill="#374151"></path></svg>